<svg width="218" height="71" viewBox="0 0 218 71" fill="none" xmlns="http://www.w3.org/2000/svg">
<g filter="url(#filter0_d_862_8)">
<path d="M69.0515 26.4642C69.4602 26.7485 69.9576 26.8788 70.4373 27.0031C70.8992 27.1216 71.3552 27.24 71.8171 27.3525C72.0185 27.4058 72.2258 27.4532 72.4271 27.4236C72.9779 27.3347 73.0193 26.63 73.0785 26.1977C73.1733 25.4871 73.274 24.7764 73.3865 24.0717C73.4753 23.4795 73.6352 23.0116 73.0312 22.68C72.1902 22.2181 71.2131 21.6081 70.2182 21.6673C69.5016 21.7088 69.0693 22.3128 68.8383 22.9347C68.6429 23.4736 68.5067 24.0303 68.4416 24.5988C68.4238 24.7705 68.406 24.9422 68.406 25.1081C68.4001 25.6351 68.5363 26.1089 69.0515 26.4642Z" fill="#5B9BD5"/>
<path d="M149.527 40.3278C149.621 40.3397 149.059 42.8092 148.988 43.0224C148.703 43.964 148.313 44.876 147.839 45.7347C146.986 47.2685 145.825 49.0984 144.209 49.9275C142.195 50.9579 141.816 48.7313 141.745 47.2093C141.591 43.8455 141.461 40.4877 141.2 37.1358C141.076 35.5487 141.082 33.8668 140.614 32.3449C140.377 31.5927 140.004 30.8111 139.216 30.7045C138.47 30.6097 137.748 30.4616 137.007 30.3669C136.682 30.3195 136.261 30.2188 135.947 30.3254C135.687 30.4083 135.397 30.7045 135.177 30.8821C133.318 32.3508 132.145 34.5301 131.233 36.6739C130.659 38.0182 130.126 39.3921 129.7 40.8016C130.013 39.7415 129.623 37.9294 129.563 36.8397C129.492 35.5428 129.386 34.2459 129.244 32.9548C129.155 32.1672 129.196 30.894 128.823 30.1892C128.645 29.8576 127.544 29.8576 127.206 29.7984C126.661 29.7036 126.123 29.6622 125.578 29.6207C125.199 29.5852 124.328 29.2891 124.257 29.751C124.133 30.5919 123.623 31.6164 123.398 32.4988C123.12 33.5826 122.871 34.6782 122.475 35.7323C121.764 37.6392 120.514 39.3625 118.726 40.387C118.531 40.4996 118.311 40.6121 118.08 40.6239C117.382 40.6713 116.73 39.8837 116.624 39.25C116.452 38.2314 116.511 37.3194 116.689 36.3008C117.026 34.3939 117.364 32.487 117.695 30.5919C117.849 29.751 118.092 28.9633 118.258 28.1283C118.359 27.6309 118.477 26.938 118.24 26.4346C117.5 26.1148 116.76 25.7654 116.002 25.5226C115.415 25.3331 114.687 25.191 114.03 24.9482C114.024 24.9719 114.018 24.9837 114.012 25.0015C113.87 25.5049 113.745 26.0082 113.633 26.5175C111.809 25.724 110.151 25.0666 108.007 25.7654C103.696 27.163 101.333 32.8364 99.5798 36.5851C98.6679 38.5394 97.9039 40.5765 96.8971 42.4834C96.7906 42.6848 96.6721 42.8921 96.4708 42.9928C95.4166 43.5317 95.3989 40.2982 95.3574 39.7771C95.2153 37.7932 95.1501 35.8093 95.1265 33.8254C95.1146 33.0614 95.2864 31.0657 94.3862 30.7637C94.2322 30.7104 94.0664 30.7222 93.9065 30.7341C93.2492 30.7814 92.574 30.7222 91.9108 30.7341C90.9455 30.7518 90.0453 30.9176 89.0919 30.9828C88.9083 30.9946 88.6832 31.0361 88.6181 31.2078C88.5944 31.267 88.6003 31.3381 88.6003 31.4033C88.6181 31.6757 88.6299 31.9481 88.6477 32.2205C88.4523 33.2628 88.2391 34.3228 88.2095 34.4709C87.8541 36.4133 87.4159 38.338 86.8119 40.2153C86.4861 41.2339 86.1604 42.2643 85.7222 43.2415C85.4616 43.8337 85.2247 44.4496 84.8398 44.9767C84.5259 45.3971 83.8094 46.0012 83.4837 45.2254C83.3948 45.0181 83.4007 44.7812 83.4067 44.5562C83.4659 41.3523 83.5429 38.1544 83.6258 34.9565C83.6435 34.1926 83.6495 32.9963 83.3178 32.0961C82.3288 31.9955 81.328 31.9007 80.3331 31.8948C79.4329 31.8829 78.5683 32.1021 77.6859 32.2087C77.3898 32.6469 77.3721 33.2213 77.3069 33.9557C77.2062 35.1105 77.1529 36.2712 77.1352 37.4319C76.9871 37.9531 76.8805 38.4387 76.845 38.563C76.4482 40.0376 75.8501 41.3879 75.0565 42.6967C74.7427 43.2119 74.2926 43.8514 73.6589 43.9699C70.3189 44.5799 71.8231 33.1621 72.3975 31.3263C72.5396 30.8703 72.8357 30.2425 72.6107 29.7688C72.5989 29.7451 72.587 29.7214 72.5693 29.6977C72.4271 29.4667 72.1606 29.3779 71.9119 29.3068C70.8933 28.993 69.851 28.7028 68.8147 28.46C68.5541 28.4067 68.2639 28.3001 68.0093 28.2764C67.6658 28.2349 67.6954 28.2112 67.571 28.5725C67.4171 29.0403 67.2453 29.526 67.0913 29.9879C66.3866 31.9658 65.6108 33.9379 64.7284 35.8448C63.8875 37.6629 63.0762 39.5046 61.9806 41.1865C61.1515 42.4598 59.4874 44.8582 57.7404 44.8701C57.012 44.876 56.3901 44.0113 56.3191 43.3422C56.2125 42.2703 56.3309 41.3287 56.5856 40.2864C57.0653 38.3321 57.539 36.3719 58.0128 34.4235C58.226 33.5589 58.528 32.7535 58.759 31.9066C58.8952 31.3973 59.061 30.6867 58.8537 30.1419C58.1075 29.7628 57.3614 29.3483 56.5915 29.0404C55.9934 28.8035 55.2472 28.608 54.5839 28.3119C54.578 28.3356 54.5721 28.3475 54.5662 28.3652C54.3826 28.8805 54.2227 29.3897 54.0746 29.9109C52.2328 28.9693 50.5569 28.1757 48.2828 28.7501C42.4673 30.2307 41.4014 37.7695 42.3489 42.7085C42.4614 43.2948 42.6035 43.8751 42.7516 44.4496C43.3971 46.8539 45.3455 47.5587 47.7084 47.4521C48.8395 47.3988 49.3488 46.6822 49.7989 45.7169C50.7997 43.5613 51.6999 41.3582 52.4934 39.1138C52.4697 39.6882 52.4579 40.2686 52.4875 40.8431C52.529 41.6899 52.6355 42.5308 52.831 43.3481C53.2396 45.0477 54.6194 46.2854 56.3901 46.3506C61.0627 46.5282 63.8164 40.3041 65.9484 37.0174C66.0017 36.9345 66.5939 36.1113 66.4873 36.0225C66.7478 36.2416 66.5169 37.1299 66.4991 37.426C66.4577 38.4328 66.4695 39.4573 66.6117 40.4581C66.8841 42.4183 67.7605 44.4792 69.5135 45.5452C70.84 46.3506 72.6107 46.3387 73.9846 45.6044C75.4651 44.8108 76.3002 43.206 76.8805 41.6958C77.0049 41.3701 77.1115 41.0444 77.2181 40.7127C77.3661 43.0342 77.7333 45.3498 78.4262 47.5765C78.9414 49.2465 80.3509 51.6331 82.4769 50.7566C84.2594 50.0223 85.1596 47.8962 85.9354 46.2795C86.9599 44.1476 87.866 41.8913 88.4345 39.5876C88.6181 38.8888 88.7602 38.1959 88.8787 37.4911C88.9023 37.3609 88.9201 37.2247 88.9379 37.0944C88.9616 37.4793 88.9793 37.8702 89.003 38.2551C89.1215 40.4344 89.0149 42.6374 89.4531 44.7871C89.8617 46.7888 90.9395 50.0282 93.563 49.6729C95.1561 49.4597 96.1628 47.7186 96.8379 46.4098C98.3895 43.3954 99.8523 40.3397 101.096 37.1832C101.617 35.8626 102.12 34.4946 102.796 33.2332C102.523 35.4006 102.719 37.6629 103.198 39.5165C103.34 40.0732 103.512 40.6239 103.69 41.1628C104.454 43.431 106.367 43.9817 108.629 43.7389C109.713 43.6205 110.157 42.898 110.524 41.9445C111.347 39.8185 112.075 37.6451 112.703 35.448C112.715 35.9988 112.739 36.5614 112.804 37.1062C112.893 37.9175 113.047 38.717 113.284 39.4869C113.781 41.0918 115.179 42.1933 116.878 42.1459C120.591 42.0512 123.019 37.6747 123.73 34.5005C123.807 34.1452 123.878 33.7958 123.955 33.4405C124.032 33.097 124.115 32.7416 124.21 32.3922C124.233 32.8068 124.257 33.2213 124.281 33.63C124.281 33.707 124.287 33.778 124.287 33.855L124.293 33.8964C124.376 36.2001 124.53 38.5038 124.666 40.8075C124.743 42.1459 124.808 43.8278 125.501 45.0714C125.578 45.2076 126.419 45.2787 126.59 45.3142C127.011 45.3853 127.425 45.4504 127.846 45.4978C128.237 45.5452 128.639 45.5748 129.03 45.5925C129.172 45.5985 129.315 45.6222 129.451 45.6399C129.474 45.6458 129.492 45.6399 129.51 45.634C129.528 45.6162 129.534 45.5926 129.534 45.5748C129.854 43.656 130.398 41.7728 131.056 39.9429C131.701 38.1663 132.4 36.36 133.312 34.69C133.768 33.8491 134.923 31.267 135.918 33.0437C136.172 33.4878 136.196 34.0208 136.232 34.536C136.433 38.7052 136.64 42.8684 136.853 47.0375C136.948 48.9326 137.096 51.2126 138.725 52.474C140.436 53.7946 142.977 53.8716 144.665 52.5036C145.423 51.8877 146.009 51.0942 146.554 50.271C147.122 49.4064 147.632 48.5062 148.099 47.5824C149.219 45.3201 150.006 42.898 150.439 40.4107C150.107 40.3693 149.817 40.3456 149.527 40.3278ZM52.9553 34.6189C52.2743 36.7094 51.5637 38.7999 50.6576 40.8134C50.2726 41.6544 48.2828 46.0604 46.9977 43.9403C46.7845 43.5672 46.7135 43.1408 46.6602 42.7085C46.2219 38.9894 46.2871 33.701 50.0239 31.5572C51.155 30.9058 52.5289 30.663 53.7252 31.0834C53.4113 32.2442 53.1567 33.4227 52.9553 34.6189ZM112.869 31.1012C112.342 33.1503 111.791 35.1993 111.045 37.1832C110.725 38.0123 109.091 42.365 107.729 40.4107C107.498 40.0672 107.409 39.6586 107.332 39.25C106.68 35.7145 106.42 30.6393 109.872 28.3474C110.915 27.6486 112.223 27.3348 113.39 27.6605C113.159 28.7975 112.987 29.9464 112.869 31.1012Z" fill="#5B9BD5"/>
<path d="M53.8614 12.0262C53.7903 11.5406 53.7133 11.0491 53.512 10.599C53.512 10.6227 53.512 10.6464 53.512 10.6701C53.1152 9.78767 52.369 8.98819 51.6169 8.59734C49.8166 7.66757 47.4952 7.78602 45.606 8.36046C42.1594 9.40867 39.3109 11.9551 37.1138 14.7681C36.948 14.7326 36.788 14.6911 36.6222 14.6556C36.5808 14.6438 36.5393 14.6379 36.4979 14.626C35.195 14.3358 33.8922 14.022 32.5952 13.7081C28.663 12.7665 24.5708 11.8249 20.5023 12.1506C15.0718 12.5888 9.80114 15.0998 5.92218 18.9077C6.15906 19.2097 6.41963 19.488 6.68021 19.7723C9.36291 17.3265 12.4009 15.2715 15.9068 14.1878C20.3602 12.8079 24.63 13.8028 28.9413 15.1708C31.0969 15.8519 33.2703 16.5448 35.4793 17.1074C32.7906 21.3535 31.1561 26.2333 29.8237 31.042C29.1071 33.6241 28.4142 36.2238 27.7865 38.8295C27.0048 42.0808 26.5606 45.486 24.9261 48.4529C23.9845 50.1644 21.817 52.4029 19.7621 50.8573C18.5362 49.9334 18.0447 48.3937 17.8966 46.925C17.8729 46.7 17.8729 44.9767 18.021 44.0647C17.565 43.9758 17.1031 43.8988 16.6411 43.8988C16.4635 43.8988 16.2858 43.9048 16.1082 43.9107C15.7173 46.2262 15.9542 48.6424 16.7951 50.8336C17.8611 53.5992 20.6563 55.2456 23.57 55.21C27.9582 55.1508 30.9134 51.5502 32.7255 47.8962C35.0707 43.1645 35.9767 37.8702 37.173 32.7713C38.3159 27.8974 39.3582 22.8755 41.4546 18.2977C41.4724 18.2622 41.4902 18.2266 41.502 18.1911C41.9047 18.2266 42.3074 18.2681 42.7101 18.2918C46.826 18.5227 54.7319 17.895 53.8614 12.0262ZM47.1398 11.5169C48.8217 10.8359 51.7354 11.0076 52.0256 13.2876C52.0433 13.412 52.0611 13.5423 52.1085 13.6548C52.1085 13.7436 52.1025 13.8088 52.1025 13.8265C51.9426 15.3189 49.7219 15.6861 48.5671 15.917C46.5713 16.3138 44.6052 16.2309 42.6509 15.9407C43.7406 14.0575 45.1619 12.3105 47.1398 11.5169Z" fill="#5B9BD5"/>
<path d="M67.7309 23.213C68.1395 23.4973 68.637 23.6275 69.1167 23.7519C69.5786 23.8703 70.0346 23.9888 70.4965 24.1013C70.6979 24.1546 70.8992 24.202 71.1065 24.1724C71.6572 24.0835 71.6987 23.3788 71.7579 22.9465C71.8527 22.2359 71.9533 21.5252 72.0659 20.8205C72.1547 20.2283 72.3146 19.7604 71.7105 19.4288C70.8696 18.9669 69.8925 18.3569 68.8975 18.4161C68.181 18.4576 67.7487 19.0616 67.5177 19.6834C67.3223 20.2223 67.1861 20.779 67.1209 21.3475C67.1032 21.5193 67.0854 21.691 67.0854 21.8569C67.0795 22.3898 67.2157 22.8577 67.7309 23.213Z" fill="white"/>
<path d="M148.206 37.0766C148.301 37.0884 147.738 39.558 147.667 39.7712C147.383 40.7128 146.992 41.6247 146.518 42.4834C145.665 44.0173 144.505 45.8472 142.888 46.6763C140.874 47.7067 140.495 45.48 140.424 43.9581C140.27 40.5943 140.14 37.2365 139.88 33.8846C139.755 32.2975 139.761 30.6156 139.293 29.0936C139.056 28.3415 138.683 27.5598 137.896 27.4532C137.149 27.3584 136.427 27.2104 135.687 27.1157C135.361 27.0683 134.941 26.9676 134.627 27.0742C134.366 27.1571 134.076 27.4532 133.857 27.6309C131.997 29.0996 130.825 31.2789 129.913 33.4227C129.338 34.767 128.805 36.1409 128.379 37.5504C128.693 36.4903 128.302 34.6782 128.243 33.5885C128.172 32.2916 128.065 30.9946 127.923 29.7036C127.834 28.916 127.875 27.6427 127.502 26.938C127.325 26.6063 126.223 26.6064 125.886 26.5471C125.341 26.4524 124.802 26.4109 124.257 26.3695C123.878 26.334 123.008 26.0378 122.936 26.4998C122.812 27.3407 122.303 28.3652 122.078 29.2476C121.799 30.3313 121.551 31.4269 121.154 32.4811C120.443 34.388 119.194 36.1113 117.405 37.1358C117.21 37.2483 116.991 37.3608 116.76 37.3727C116.061 37.4201 115.41 36.6325 115.303 35.9988C115.131 34.9802 115.19 34.0682 115.368 33.0496C115.706 31.1427 116.043 29.2358 116.375 27.3407C116.529 26.4998 116.772 25.7121 116.937 24.8771C117.038 24.3797 117.157 23.6868 116.92 23.1834C116.179 22.8636 115.439 22.5142 114.681 22.2714C114.095 22.0819 113.366 21.9398 112.709 21.697C112.703 21.7206 112.697 21.7325 112.691 21.7503C112.549 22.2537 112.425 22.757 112.312 23.2663C110.488 22.4728 108.83 21.8154 106.686 22.5142C102.375 23.9118 100.012 29.5852 98.2592 33.3339C97.3472 35.2881 96.5832 37.3253 95.5765 39.2322C95.4699 39.4336 95.3514 39.6408 95.1501 39.7415C94.096 40.2804 94.0782 37.047 94.0367 36.5258C93.8946 34.5419 93.8295 32.558 93.8058 30.5741C93.7939 29.8102 93.9657 27.8145 93.0655 27.5124C92.9115 27.4591 92.7457 27.471 92.5858 27.4828C91.9285 27.5302 91.2534 27.471 90.5901 27.4828C89.6248 27.5006 88.7246 27.6664 87.7712 27.7316C87.5876 27.7434 87.3626 27.7849 87.2974 27.9566C87.2737 28.0158 87.2797 28.0869 87.2797 28.152C87.2974 28.4245 87.3093 28.6969 87.327 28.9693C87.1316 30.0116 86.9184 31.0716 86.8888 31.2197C86.5335 33.1621 86.0952 35.0868 85.4912 36.9641C85.1655 37.9827 84.8397 39.0131 84.4015 39.9903C84.1409 40.5825 83.9041 41.1984 83.5191 41.7254C83.2053 42.1459 82.4887 42.7499 82.163 41.9741C82.0741 41.7669 82.0801 41.53 82.086 41.3049C82.1452 38.1011 82.2222 34.9032 82.3051 31.7053C82.3229 30.9413 82.3288 29.7451 81.9972 28.8449C81.0082 28.7442 80.0073 28.6495 79.0124 28.6435C78.1123 28.6317 77.2477 28.8508 76.3653 28.9574C76.0692 29.3957 76.0514 29.9701 75.9862 30.7045C75.8856 31.8593 75.8323 33.02 75.8145 34.1807C75.6664 34.7019 75.5599 35.1874 75.5243 35.3118C75.1275 36.7864 74.5294 38.1366 73.7359 39.4454C73.422 39.9606 72.9719 40.6002 72.3382 40.7187C68.9982 41.3286 70.5024 29.9109 71.0768 28.075C71.219 27.619 71.5151 26.9913 71.29 26.5175C71.2782 26.4939 71.2663 26.4702 71.2486 26.4465C71.1065 26.2155 70.84 26.1267 70.5912 26.0556C69.5726 25.7417 68.5304 25.4516 67.494 25.2087C67.2334 25.1554 66.9432 25.0489 66.6886 25.0252C66.3451 24.9837 66.3747 24.96 66.2503 25.3213C66.0964 25.7891 65.9246 26.2747 65.7707 26.7367C65.0659 28.7146 64.2901 30.6867 63.4078 32.5936C62.5668 34.4117 61.7555 36.2534 60.6599 37.9353C59.8308 39.2085 58.1667 41.607 56.4197 41.6188C55.6913 41.6248 55.0695 40.7601 54.9984 40.0909C54.8918 39.019 55.0103 38.0774 55.2649 37.0292C55.7446 35.0749 56.2184 33.1147 56.6921 31.1664C56.9053 30.3017 57.2073 29.4963 57.4383 28.6495C57.5745 28.1402 57.7403 27.4295 57.5331 26.8847C56.7869 26.5057 56.0407 26.0912 55.2708 25.7832C54.6727 25.5463 53.9265 25.3509 53.2632 25.0548C53.2573 25.0785 53.2514 25.0903 53.2455 25.1081C53.0619 25.6233 52.902 26.1326 52.7539 26.6537C50.9122 25.7121 49.2362 24.9186 46.9621 25.493C41.1467 26.9735 40.0807 34.5123 41.0282 39.4513C41.1407 40.0376 41.2829 40.618 41.4309 41.1924C42.0764 43.5968 44.0248 44.3015 46.3877 44.1949C47.5188 44.1416 48.0281 43.4251 48.4782 42.4598C49.479 40.3041 50.3792 38.1011 51.1727 35.8566C51.1491 36.4311 51.1372 37.0115 51.1668 37.5859C51.2083 38.4328 51.3149 39.2737 51.5103 40.0909C51.9189 41.7906 53.2988 43.0283 55.0695 43.0934C59.742 43.2711 62.4958 37.047 64.6277 33.7602C64.681 33.6773 65.2732 32.8542 65.1666 32.7653C65.4272 32.9844 65.1962 33.8728 65.1785 34.1689C65.137 35.1756 65.1488 36.2001 65.291 37.201C65.5634 39.1612 66.4399 41.2221 68.1928 42.288C69.5193 43.0934 71.29 43.0816 72.664 42.3472C74.1445 41.5537 74.9795 39.9488 75.5599 38.4387C75.6842 38.113 75.7908 37.7872 75.8974 37.4556C76.0455 39.7771 76.4126 42.0926 77.1055 44.3193C77.6207 45.9893 79.0302 48.3759 81.1562 47.4995C82.9388 46.7651 83.8389 44.6391 84.6147 43.0224C85.6392 40.8904 86.5453 38.6341 87.1138 36.3304C87.2974 35.6316 87.4395 34.9387 87.558 34.234C87.5817 34.1037 87.5994 33.9675 87.6172 33.8372C87.6409 34.2222 87.6587 34.613 87.6824 34.998C87.8008 37.1773 87.6942 39.3803 88.1324 41.53C88.5411 43.5317 89.6189 46.771 92.2424 46.4157C93.8354 46.2025 94.8421 44.4614 95.5173 43.1526C97.0688 40.1383 98.5316 37.0825 99.7752 33.9261C100.296 32.6054 100.8 31.2374 101.475 29.976C101.202 32.1435 101.398 34.4058 101.878 36.2594C102.02 36.816 102.191 37.3668 102.369 37.9057C103.133 40.1738 105.046 40.7246 107.308 40.4818C108.392 40.3633 108.836 39.6409 109.203 38.6874C110.026 36.5614 110.755 34.388 111.382 32.1909C111.394 32.7416 111.418 33.3042 111.483 33.8491C111.572 34.6604 111.726 35.4599 111.963 36.2297C112.46 37.8346 113.858 38.9361 115.558 38.8888C119.271 38.794 121.699 34.4176 122.409 31.2433C122.486 30.888 122.557 30.5386 122.634 30.1833C122.711 29.8398 122.794 29.4845 122.889 29.1351C122.913 29.5496 122.936 29.9642 122.96 30.3728C122.96 30.4498 122.966 30.5209 122.966 30.5979L122.972 30.6393C123.055 32.943 123.209 35.2467 123.345 37.5504C123.422 38.8888 123.487 40.5706 124.18 41.8142C124.257 41.9504 125.098 42.0215 125.27 42.0571C125.69 42.1281 126.105 42.1933 126.525 42.2406C126.916 42.288 127.319 42.3176 127.71 42.3354C127.852 42.3413 127.994 42.365 128.13 42.3828C128.154 42.3887 128.172 42.3828 128.189 42.3768C128.207 42.3591 128.213 42.3354 128.213 42.3176C128.533 40.3989 129.078 38.5157 129.735 36.6857C130.381 34.9091 131.079 33.1029 131.991 31.4329C132.447 30.5919 133.602 28.0099 134.597 29.7865C134.852 30.2307 134.875 30.7637 134.911 31.2789C135.112 35.448 135.32 39.6112 135.533 43.7804C135.627 45.6754 135.776 47.9554 137.404 49.2168C139.116 50.5375 141.656 50.6145 143.344 49.2465C144.102 48.6306 144.688 47.837 145.233 47.0138C145.802 46.1492 146.311 45.2491 146.779 44.3252C147.898 42.0689 148.686 39.6408 149.118 37.1536C148.786 37.118 148.496 37.1003 148.206 37.0766ZM51.6347 31.3677C50.9536 33.4582 50.243 35.5487 49.3369 37.5622C48.952 38.4031 46.9621 42.8092 45.6771 40.6891C45.4639 40.316 45.3928 39.8896 45.3395 39.4573C44.9013 35.7382 44.9664 30.4498 48.7032 28.306C49.8343 27.6546 51.2083 27.4118 52.4045 27.8322C52.0907 28.993 51.836 30.1715 51.6347 31.3677ZM111.548 27.8559C111.021 29.905 110.471 31.954 109.724 33.9379C109.405 34.767 107.77 39.1197 106.408 37.1654C106.177 36.8219 106.088 36.4133 106.011 36.0047C105.36 32.4692 105.099 27.394 108.552 25.1022C109.594 24.4033 110.903 24.0895 112.069 24.4152C111.839 25.5522 111.667 26.6952 111.548 27.8559Z" fill="white"/>
<path d="M52.5408 8.775C52.4697 8.28939 52.3927 7.79785 52.1914 7.34777C52.1914 7.37146 52.1914 7.39516 52.1914 7.41885C51.7946 6.53646 51.0484 5.73698 50.2963 5.34613C48.496 4.41636 46.1745 4.53479 44.2854 5.10923C40.8387 6.15744 37.9902 8.70393 35.7931 11.5169C35.6273 11.4814 35.4674 11.4399 35.3016 11.4044C35.2601 11.3926 35.2187 11.3866 35.1772 11.3748C33.8744 11.0846 32.5715 10.7707 31.2746 10.4569C27.3423 9.51525 23.2502 8.57366 19.1817 8.89937C13.7512 9.33761 8.48052 11.8486 4.60156 15.6564C4.83845 15.9585 5.09902 16.2368 5.35959 16.5211C8.04229 14.0753 11.0803 12.0203 14.5862 10.9366C19.0396 9.55671 23.3094 10.5516 27.6207 11.9196C29.7763 12.6007 31.9497 13.2936 34.1586 13.8561C31.47 18.1023 29.8355 22.982 28.5031 27.7908C27.7865 30.3728 27.0936 32.9726 26.4659 35.5783C25.6842 38.8295 25.24 42.2347 23.6055 45.2017C22.6639 46.9132 20.4964 49.1517 18.4415 47.6061C17.2156 46.6822 16.7241 45.1425 16.576 43.6738C16.5523 43.4488 16.5523 41.7255 16.7004 40.8135C16.2444 40.7246 15.7824 40.6476 15.3205 40.6476C15.1429 40.6476 14.9652 40.6536 14.7875 40.6595C14.3967 42.975 14.6336 45.3912 15.4745 47.5883C16.5405 50.3539 19.3357 52.0002 22.2434 51.9647C26.6317 51.9055 29.5868 48.3049 31.399 44.651C33.7441 39.9192 34.6502 34.6248 35.8464 29.5259C36.9894 24.6521 38.0317 19.6302 40.1281 15.0524C40.1459 15.0169 40.1636 14.9813 40.1755 14.9458C40.5782 14.9813 40.9809 15.0228 41.3836 15.0465C45.5054 15.2774 53.4113 14.6497 52.5408 8.775ZM45.8192 8.26571C47.5011 7.58467 50.4147 7.7564 50.7049 10.0364C50.7227 10.1608 50.7405 10.291 50.7878 10.4036C50.7878 10.4924 50.7819 10.5575 50.7819 10.5753C50.622 12.0677 48.4012 12.4348 47.2464 12.6658C45.2507 13.0626 43.2846 12.9797 41.3303 12.6895C42.4259 10.8063 43.8412 9.06519 45.8192 8.26571Z" fill="white"/>
<path d="M147.199 11.0965C144.712 11.2623 142.604 12.9442 140.401 13.9805C141.005 12.0736 142.017 10.2911 142.367 8.30124C142.556 7.21158 142.544 6.02717 141.899 5.07963C141.431 4.39267 140.821 3.94851 140.158 3.72347C138.233 3.06612 135.888 4.22093 135.509 6.52462C135.118 8.87569 136.16 11.209 136.699 13.489C135.166 12.3875 133.809 11.0136 132.104 10.1549C131.115 9.6574 129.978 9.33168 128.882 9.66924C128.089 9.91797 127.485 10.374 127.076 10.9484C125.886 12.6007 126.318 15.1827 128.408 16.2131C130.469 17.2258 132.897 16.9652 135.166 17.0778C133.655 18.0845 131.979 18.8721 130.647 20.1276C129.842 20.8856 129.143 21.8391 129.09 22.988C129.048 23.8171 129.273 24.5396 129.67 25.12C130.813 26.8018 133.389 27.2815 135.071 25.6648C136.729 24.0777 137.315 21.7029 138.192 19.6065C138.618 21.3712 138.79 23.213 139.512 24.8949C139.951 25.9135 140.608 26.8907 141.668 27.3348C142.432 27.6546 143.19 27.6901 143.871 27.5184C145.843 27.015 147.176 24.7646 146.234 22.6327C145.31 20.5303 143.279 19.1683 141.609 17.6285C143.409 17.8299 145.198 18.3036 147.027 18.197C148.135 18.1319 149.278 17.8476 150.06 17.0067C150.622 16.3967 150.912 15.6979 150.983 14.9991C151.185 12.9619 149.527 10.9425 147.199 11.0965Z" fill="#FFE8EC"/>
<path d="M137.031 13.3883C138.008 14.555 138.76 15.5321 138.707 15.5736C138.654 15.615 137.825 14.709 136.847 13.5423C135.87 12.3757 135.118 11.3985 135.171 11.3571C135.225 11.3156 136.054 12.2276 137.031 13.3883Z" fill="#FFEAEE"/>
<path d="M135.385 10.9839C135.527 11.1556 135.503 11.4044 135.337 11.5465C135.166 11.6886 134.917 11.6649 134.775 11.4991C134.633 11.3274 134.656 11.0787 134.822 10.9365C134.988 10.7944 135.243 10.8181 135.385 10.9839Z" fill="#F89730"/>
<path d="M137.884 12.9501C138.405 14.3773 138.772 15.5558 138.713 15.5795C138.648 15.6032 138.18 14.4602 137.659 13.033C137.138 11.6057 136.77 10.4273 136.83 10.4036C136.889 10.3799 137.363 11.5169 137.884 12.9501Z" fill="#FFEAEE"/>
<path d="M137.149 10.1252C137.226 10.3325 137.12 10.5634 136.913 10.6404C136.705 10.7174 136.474 10.6108 136.397 10.4035C136.32 10.1963 136.427 9.96531 136.634 9.88832C136.842 9.81133 137.078 9.91793 137.149 10.1252Z" fill="#F89730"/>
<path d="M138.831 12.8257C138.831 14.3476 138.778 15.5794 138.713 15.5794C138.648 15.5794 138.594 14.3476 138.594 12.8257C138.594 11.3037 138.648 10.0719 138.713 10.0719C138.778 10.0719 138.831 11.3037 138.831 12.8257Z" fill="#FFEAEE"/>
<path d="M139.11 9.91796C139.11 10.1371 138.932 10.3207 138.707 10.3207C138.488 10.3207 138.304 10.143 138.304 9.91796C138.304 9.69884 138.482 9.51526 138.707 9.51526C138.932 9.52118 139.11 9.69884 139.11 9.91796Z" fill="#F89730"/>
<path d="M139.767 13.033C139.246 14.4602 138.772 15.6032 138.713 15.5795C138.648 15.5558 139.021 14.3773 139.542 12.9501C140.063 11.5228 140.537 10.3799 140.596 10.4036C140.655 10.4272 140.282 11.5998 139.767 13.033Z" fill="#FFDCE4"/>
<path d="M141.023 10.3976C140.946 10.6049 140.715 10.7115 140.507 10.6345C140.3 10.5575 140.193 10.3266 140.27 10.1193C140.347 9.91202 140.578 9.80541 140.786 9.8824C140.987 9.95938 141.094 10.1904 141.023 10.3976Z" fill="#F89730"/>
<path d="M140.572 13.5423C139.595 14.7089 138.76 15.615 138.713 15.5735C138.66 15.5321 139.412 14.549 140.389 13.3883C141.366 12.2216 142.201 11.3156 142.248 11.357C142.302 11.4044 141.55 12.3815 140.572 13.5423Z" fill="#FFDCE4"/>
<path d="M142.651 11.4991C142.509 11.6709 142.254 11.6886 142.088 11.5465C141.917 11.4044 141.899 11.1497 142.041 10.9839C142.183 10.8122 142.438 10.7944 142.604 10.9365C142.77 11.0787 142.793 11.3333 142.651 11.4991Z" fill="#F89730"/>
<path d="M141.153 14.3062C139.838 15.0642 138.743 15.6327 138.707 15.5794C138.671 15.5202 139.714 14.857 141.028 14.0989C142.343 13.3409 143.439 12.7724 143.474 12.8257C143.51 12.879 142.468 13.5422 141.153 14.3062Z" fill="#FFDCE4"/>
<path d="M143.806 13.0922C143.616 13.2047 143.368 13.1396 143.261 12.9441C143.149 12.7546 143.214 12.5059 143.409 12.3993C143.599 12.2868 143.847 12.3519 143.954 12.5473C144.061 12.7428 143.995 12.9856 143.806 13.0922Z" fill="#F89730"/>
<path d="M141.443 15.2182C139.945 15.4847 138.725 15.6446 138.713 15.5794C138.701 15.5143 139.903 15.2478 141.402 14.9813C142.9 14.7148 144.12 14.5549 144.132 14.6201C144.143 14.6852 142.935 14.9517 141.443 15.2182Z" fill="#FFDCE4"/>
<path d="M144.351 14.9872C144.132 15.0228 143.924 14.8806 143.889 14.6615C143.853 14.4424 143.995 14.2351 144.215 14.1996C144.434 14.1641 144.641 14.3062 144.676 14.5253C144.712 14.7385 144.564 14.9458 144.351 14.9872Z" fill="#F89730"/>
<path d="M141.402 16.1716C139.903 15.9051 138.701 15.6386 138.713 15.5735C138.725 15.5083 139.945 15.6682 141.443 15.9347C142.941 16.2012 144.143 16.4677 144.132 16.5329C144.12 16.598 142.894 16.4381 141.402 16.1716Z" fill="#FFDCE4"/>
<path d="M144.209 16.9533C143.989 16.9178 143.847 16.7046 143.883 16.4914C143.918 16.2723 144.126 16.1302 144.345 16.1657C144.564 16.2012 144.706 16.4144 144.671 16.6276C144.635 16.8408 144.428 16.9889 144.209 16.9533Z" fill="#F89730"/>
<path d="M141.034 17.0541C139.72 16.2961 138.677 15.6328 138.713 15.5736C138.748 15.5144 139.838 16.0829 141.159 16.8468C142.479 17.6108 143.516 18.2681 143.48 18.3273C143.445 18.3866 142.349 17.818 141.034 17.0541Z" fill="#FFDCE4"/>
<path d="M143.409 18.7478C143.22 18.6352 143.154 18.3924 143.261 18.2029C143.374 18.0134 143.616 17.9483 143.806 18.0549C143.995 18.1615 144.061 18.4102 143.954 18.5997C143.847 18.7892 143.599 18.8603 143.409 18.7478Z" fill="#F89730"/>
<path d="M140.389 17.7588C139.412 16.5921 138.66 15.615 138.713 15.5735C138.766 15.5321 139.595 16.4381 140.572 17.6048C141.55 18.7714 142.302 19.7486 142.248 19.79C142.195 19.8315 141.36 18.9254 140.389 17.7588Z" fill="#FFDCE4"/>
<path d="M142.035 20.1631C141.893 19.9914 141.917 19.7427 142.083 19.6005C142.254 19.4584 142.503 19.4821 142.645 19.6479C142.787 19.8196 142.764 20.0684 142.598 20.2105C142.432 20.3526 142.177 20.3348 142.035 20.1631Z" fill="#F89730"/>
<path d="M139.536 18.2029C139.015 16.7757 138.648 15.5972 138.707 15.5735C138.772 15.5498 139.24 16.6927 139.761 18.12C140.282 19.5472 140.649 20.7257 140.59 20.7494C140.531 20.7672 140.057 19.6301 139.536 18.2029Z" fill="#FFDCE4"/>
<path d="M140.27 21.0277C140.193 20.8205 140.3 20.5895 140.507 20.5125C140.715 20.4355 140.946 20.5421 141.023 20.7494C141.1 20.9567 140.993 21.1877 140.786 21.2646C140.572 21.3416 140.341 21.235 140.27 21.0277Z" fill="#F89730"/>
<path d="M138.589 18.3272C138.589 16.8053 138.642 15.5735 138.707 15.5735C138.772 15.5735 138.825 16.8053 138.825 18.3272C138.825 19.8492 138.772 21.081 138.707 21.081C138.642 21.081 138.589 19.8492 138.589 18.3272Z" fill="#FFDCE4"/>
<path d="M138.31 21.2291C138.31 21.0099 138.488 20.8264 138.713 20.8264C138.932 20.8264 139.116 21.004 139.116 21.2291C139.116 21.4482 138.938 21.6317 138.713 21.6317C138.488 21.6317 138.31 21.4482 138.31 21.2291Z" fill="#F89730"/>
<path d="M137.653 18.12C138.174 16.6927 138.648 15.5498 138.707 15.5735C138.772 15.5972 138.399 16.7697 137.878 18.2029C137.357 19.6301 136.883 20.7731 136.824 20.7494C136.765 20.7257 137.138 19.5472 137.653 18.12Z" fill="#FFDCE4"/>
<path d="M136.397 20.7494C136.474 20.5421 136.705 20.4355 136.913 20.5125C137.12 20.5895 137.226 20.8205 137.149 21.0277C137.073 21.235 136.842 21.3416 136.634 21.2646C136.433 21.1877 136.326 20.9567 136.397 20.7494Z" fill="#F89730"/>
<path d="M136.847 17.6048C137.825 16.4381 138.66 15.5321 138.707 15.5735C138.76 15.615 138.008 16.598 137.031 17.7588C136.054 18.9254 135.219 19.8315 135.171 19.79C135.118 19.7486 135.87 18.7714 136.847 17.6048Z" fill="#FFDCE4"/>
<path d="M134.769 19.6479C134.911 19.4762 135.166 19.4584 135.331 19.6005C135.503 19.7427 135.521 19.9973 135.379 20.1631C135.237 20.3348 134.982 20.3526 134.816 20.2105C134.65 20.0684 134.627 19.8196 134.769 19.6479Z" fill="#F89730"/>
<path d="M136.232 16.7638C137.546 16.0058 138.642 15.4373 138.677 15.4906C138.713 15.5498 137.671 16.2131 136.356 16.9711C135.041 17.7291 133.946 18.2977 133.91 18.2444C133.875 18.1851 134.911 17.5219 136.232 16.7638Z" fill="#FFDCE4"/>
<path d="M133.614 18.0549C133.803 17.9424 134.052 18.0075 134.159 18.2029C134.271 18.3924 134.206 18.6412 134.011 18.7478C133.821 18.8603 133.573 18.7951 133.466 18.5997C133.353 18.4102 133.424 18.1674 133.614 18.0549Z" fill="#F89730"/>
<path d="M135.977 15.9347C137.475 15.6682 138.695 15.5083 138.707 15.5735C138.719 15.6386 137.517 15.9051 136.018 16.1716C134.52 16.4381 133.3 16.598 133.288 16.5329C133.276 16.4677 134.485 16.1953 135.977 15.9347Z" fill="#FFDCE4"/>
<path d="M133.069 16.1657C133.288 16.1302 133.496 16.2723 133.531 16.4914C133.567 16.7105 133.424 16.9178 133.205 16.9533C132.986 16.9889 132.779 16.8468 132.743 16.6276C132.708 16.4085 132.856 16.2012 133.069 16.1657Z" fill="#F89730"/>
<path d="M136.018 14.9754C137.517 15.2419 138.719 15.5084 138.707 15.5736C138.695 15.6387 137.475 15.4788 135.977 15.2123C134.479 14.9458 133.276 14.6793 133.288 14.6142C133.3 14.555 134.526 14.7148 136.018 14.9754Z" fill="#FFDCE4"/>
<path d="M133.211 14.1996C133.43 14.2351 133.573 14.4483 133.537 14.6615C133.501 14.8806 133.288 15.0228 133.075 14.9872C132.856 14.9517 132.714 14.7385 132.749 14.5253C132.785 14.3062 132.992 14.1581 133.211 14.1996Z" fill="#F89730"/>
<path d="M136.386 14.093C137.7 14.851 138.743 15.5143 138.707 15.5735C138.671 15.6327 137.582 15.0642 136.261 14.3003C134.946 13.5422 133.904 12.879 133.94 12.8197C133.975 12.7664 135.071 13.335 136.386 14.093Z" fill="#FFDCE4"/>
<path d="M134.011 12.3993C134.2 12.5118 134.265 12.7546 134.159 12.9441C134.046 13.1336 133.803 13.1988 133.614 13.0922C133.424 12.9856 133.359 12.7368 133.466 12.5473C133.578 12.3578 133.821 12.2927 134.011 12.3993Z" fill="#F89730"/>
<path d="M137.031 13.3883C138.008 14.555 138.76 15.5321 138.707 15.5736C138.654 15.615 137.825 14.709 136.847 13.5423C135.87 12.3757 135.118 11.3985 135.171 11.3571C135.225 11.3156 136.054 12.2276 137.031 13.3883Z" fill="#FFDCE4"/>
<path d="M135.385 10.9839C135.527 11.1556 135.503 11.4044 135.337 11.5465C135.166 11.6886 134.917 11.6649 134.775 11.4991C134.633 11.3274 134.656 11.0787 134.822 10.9365C134.988 10.7944 135.243 10.8181 135.385 10.9839Z" fill="#F89730"/>
<path d="M137.884 12.9501C138.405 14.3773 138.772 15.5558 138.713 15.5795C138.648 15.6032 138.18 14.4602 137.659 13.033C137.138 11.6057 136.77 10.4273 136.83 10.4036C136.889 10.3799 137.363 11.5169 137.884 12.9501Z" fill="#FFDCE4"/>
<path d="M137.149 10.1252C137.226 10.3325 137.12 10.5634 136.913 10.6404C136.705 10.7174 136.474 10.6108 136.397 10.4035C136.32 10.1963 136.427 9.96531 136.634 9.88832C136.842 9.81133 137.078 9.91793 137.149 10.1252Z" fill="#F89730"/>
<path d="M138.831 12.8257C138.831 14.3476 138.778 15.5794 138.713 15.5794C138.648 15.5794 138.594 14.3476 138.594 12.8257C138.594 11.3037 138.648 10.0719 138.713 10.0719C138.778 10.0719 138.831 11.3037 138.831 12.8257Z" fill="#FFDCE4"/>
<path d="M139.11 9.91796C139.11 10.1371 138.932 10.3207 138.707 10.3207C138.488 10.3207 138.304 10.143 138.304 9.91796C138.304 9.69884 138.482 9.51526 138.707 9.51526C138.932 9.52118 139.11 9.69884 139.11 9.91796Z" fill="#F89730"/>
<path d="M138.713 17.439C139.743 17.439 140.578 16.6038 140.578 15.5736C140.578 14.5433 139.743 13.7081 138.713 13.7081C137.683 13.7081 136.847 14.5433 136.847 15.5736C136.847 16.6038 137.683 17.439 138.713 17.439Z" fill="#EF92A6"/>
<path d="M140.063 15.5736C140.063 16.3197 139.459 16.9238 138.713 16.9238C137.967 16.9238 137.363 16.3197 137.363 15.5736C137.363 14.8274 137.967 14.2233 138.713 14.2233C139.459 14.2233 140.063 14.8274 140.063 15.5736Z" fill="#934735"/>
<path d="M109.701 47.606C107.533 47.7482 105.691 49.2168 103.773 50.1229C104.3 48.4588 105.182 46.9013 105.484 45.1661C105.65 44.2127 105.638 43.1822 105.076 42.3531C104.667 41.755 104.134 41.3642 103.554 41.1687C101.872 40.5943 99.8286 41.601 99.4969 43.6086C99.1594 45.6577 100.065 47.6949 100.533 49.6847C99.1949 48.7253 98.0105 47.5231 96.524 46.7769C95.6594 46.3446 94.6704 46.0544 93.717 46.3565C93.0241 46.5697 92.497 46.9724 92.1417 47.4698C91.1053 48.9089 91.4784 51.1593 93.3024 52.0594C95.1027 52.9418 97.2228 52.7168 99.2008 52.8115C97.8802 53.688 96.4233 54.375 95.2626 55.4706C94.5579 56.1338 93.9538 56.9688 93.9065 57.9637C93.8709 58.6862 94.0664 59.3199 94.4158 59.8233C95.4166 61.2919 97.6611 61.7065 99.1297 60.303C100.575 58.9172 101.09 56.8445 101.854 55.0205C102.227 56.5602 102.375 58.1651 103.003 59.6338C103.388 60.5221 103.962 61.3748 104.88 61.7657C105.549 62.044 106.207 62.0737 106.805 61.9256C108.522 61.4874 109.683 59.5212 108.866 57.6617C108.06 55.8259 106.29 54.6414 104.833 53.2971C106.408 53.4748 107.965 53.8834 109.559 53.7946C110.524 53.7413 111.525 53.4926 112.2 52.7582C112.691 52.2253 112.946 51.6153 113.005 51.0053C113.183 49.2346 111.732 47.4698 109.701 47.606Z" fill="#F490A6"/>
<path d="M100.835 49.6077C101.688 50.6263 102.34 51.4791 102.298 51.5146C102.251 51.5501 101.528 50.7566 100.675 49.7439C99.8226 48.7253 99.1712 47.8725 99.2127 47.837C99.2541 47.7955 99.9825 48.5891 100.835 49.6077Z" fill="#FFEAEE"/>
<path d="M99.3963 47.5113C99.5206 47.6593 99.5028 47.8784 99.3548 48.0028C99.2067 48.1272 98.9876 48.1094 98.8633 47.9613C98.7389 47.8133 98.7567 47.5942 98.9047 47.4698C99.0469 47.3455 99.2719 47.3632 99.3963 47.5113Z" fill="#F89730"/>
<path d="M101.576 49.2227C102.032 50.4664 102.351 51.4968 102.298 51.5146C102.245 51.5323 101.83 50.5433 101.38 49.2938C100.924 48.0501 100.604 47.0197 100.658 47.0019C100.711 46.9842 101.12 47.9732 101.576 49.2227Z" fill="#FFEAEE"/>
<path d="M100.936 46.7592C101.001 46.9428 100.906 47.1382 100.729 47.2093C100.545 47.2744 100.35 47.1797 100.279 47.002C100.208 46.8243 100.308 46.623 100.486 46.5519C100.669 46.4868 100.871 46.5756 100.936 46.7592Z" fill="#F89730"/>
<path d="M102.298 51.5087C102.357 51.5087 102.405 50.4348 102.405 49.1102C102.405 47.7856 102.357 46.7118 102.298 46.7118C102.239 46.7118 102.191 47.7856 102.191 49.1102C102.191 50.4348 102.239 51.5087 102.298 51.5087Z" fill="#FFEAEE"/>
<path d="M102.298 46.9309C102.491 46.9309 102.647 46.7745 102.647 46.5815C102.647 46.3886 102.491 46.2321 102.298 46.2321C102.105 46.2321 101.949 46.3886 101.949 46.5815C101.949 46.7745 102.105 46.9309 102.298 46.9309Z" fill="#F89730"/>
<path d="M103.216 49.2938C102.76 50.5375 102.351 51.5324 102.298 51.5146C102.245 51.4969 102.565 50.4664 103.021 49.2228C103.477 47.9791 103.885 46.9842 103.938 47.002C103.992 47.0198 103.672 48.0502 103.216 49.2938Z" fill="#FFDCE4"/>
<path d="M104.312 46.996C104.246 47.1796 104.045 47.2685 103.862 47.2033C103.678 47.1382 103.589 46.9368 103.654 46.7532C103.719 46.5697 103.921 46.4808 104.104 46.546C104.288 46.6171 104.377 46.8184 104.312 46.996Z" fill="#F89730"/>
<path d="M103.921 49.7439C103.068 50.7625 102.34 51.5502 102.298 51.5146C102.251 51.4791 102.908 50.6204 103.761 49.6077C104.614 48.5891 105.342 47.8015 105.383 47.837C105.431 47.8726 104.774 48.7253 103.921 49.7439Z" fill="#FFDCE4"/>
<path d="M105.733 47.9613C105.609 48.1094 105.389 48.1272 105.241 48.0028C105.093 47.8784 105.076 47.6593 105.2 47.5113C105.324 47.3632 105.543 47.3455 105.691 47.4698C105.839 47.5942 105.857 47.8133 105.733 47.9613Z" fill="#F89730"/>
<path d="M104.43 50.4072C103.281 51.0704 102.328 51.5679 102.298 51.5146C102.268 51.4613 103.175 50.8869 104.323 50.2236C105.472 49.5603 106.426 49.0629 106.455 49.1162C106.485 49.1635 105.579 49.7439 104.43 50.4072Z" fill="#FFDCE4"/>
<path d="M106.746 49.3472C106.58 49.4419 106.367 49.3886 106.272 49.2168C106.177 49.051 106.23 48.8378 106.402 48.7431C106.568 48.6483 106.781 48.7017 106.876 48.8734C106.971 49.0392 106.911 49.2524 106.746 49.3472Z" fill="#F89730"/>
<path d="M104.679 51.2007C103.376 51.4317 102.304 51.5738 102.298 51.5146C102.286 51.4554 103.34 51.2244 104.643 50.9934C105.952 50.7625 107.018 50.6204 107.024 50.6796C107.036 50.7388 105.988 50.9698 104.679 51.2007Z" fill="#FFDCE4"/>
<path d="M107.213 50.9994C107.024 51.0349 106.84 50.9046 106.811 50.7151C106.775 50.5256 106.905 50.342 107.095 50.3124C107.284 50.2769 107.468 50.4072 107.498 50.5967C107.533 50.7862 107.409 50.9698 107.213 50.9994Z" fill="#F89730"/>
<path d="M104.643 52.0357C103.334 51.8048 102.286 51.5738 102.298 51.5146C102.31 51.4554 103.376 51.5975 104.679 51.8285C105.988 52.0595 107.036 52.2904 107.024 52.3496C107.018 52.4029 105.952 52.2667 104.643 52.0357Z" fill="#FFDCE4"/>
<path d="M107.095 52.7168C106.905 52.6813 106.781 52.5036 106.811 52.3141C106.846 52.1246 107.024 52.0002 107.213 52.0298C107.403 52.0594 107.527 52.243 107.498 52.4325C107.468 52.622 107.284 52.7464 107.095 52.7168Z" fill="#F89730"/>
<path d="M104.323 52.8056C103.175 52.1424 102.268 51.562 102.298 51.5146C102.328 51.4613 103.281 51.9587 104.43 52.622C105.579 53.2853 106.485 53.8657 106.455 53.9131C106.426 53.9664 105.472 53.4689 104.323 52.8056Z" fill="#FFDCE4"/>
<path d="M106.396 54.2802C106.23 54.1855 106.171 53.9722 106.266 53.8064C106.361 53.6406 106.574 53.5814 106.74 53.6761C106.905 53.7709 106.965 53.9841 106.87 54.1499C106.775 54.3216 106.562 54.3809 106.396 54.2802Z" fill="#F89730"/>
<path d="M103.761 53.4215C102.908 52.4029 102.257 51.5501 102.298 51.5146C102.345 51.479 103.068 52.2726 103.921 53.2853C104.773 54.3039 105.425 55.1567 105.383 55.1922C105.342 55.2277 104.614 54.4342 103.761 53.4215Z" fill="#FFDCE4"/>
<path d="M105.2 55.5179C105.076 55.3698 105.093 55.1507 105.241 55.0264C105.389 54.902 105.609 54.9197 105.733 55.0678C105.857 55.2158 105.839 55.435 105.691 55.5593C105.543 55.6837 105.324 55.6659 105.2 55.5179Z" fill="#F89730"/>
<path d="M103.021 53.8064C102.565 52.5628 102.245 51.5323 102.298 51.5146C102.351 51.4968 102.766 52.4858 103.216 53.7354C103.672 54.979 103.992 56.0094 103.938 56.0272C103.885 56.045 103.471 55.0501 103.021 53.8064Z" fill="#FFDCE4"/>
<path d="M103.654 56.2701C103.589 56.0865 103.684 55.8911 103.861 55.82C104.045 55.7548 104.241 55.8496 104.312 56.0272C104.383 56.2049 104.282 56.4063 104.104 56.4773C103.921 56.5425 103.725 56.4477 103.654 56.2701Z" fill="#F89730"/>
<path d="M102.191 53.9131C102.191 52.5865 102.239 51.5146 102.298 51.5146C102.357 51.5146 102.405 52.5924 102.405 53.9131C102.405 55.2396 102.357 56.3115 102.298 56.3115C102.239 56.3115 102.191 55.2396 102.191 53.9131Z" fill="#FFDCE4"/>
<path d="M102.298 56.7971C102.491 56.7971 102.647 56.6407 102.647 56.4477C102.647 56.2547 102.491 56.0983 102.298 56.0983C102.105 56.0983 101.949 56.2547 101.949 56.4477C101.949 56.6407 102.105 56.7971 102.298 56.7971Z" fill="#F89730"/>
<path d="M101.374 53.7354C101.83 52.4917 102.239 51.4968 102.292 51.5146C102.345 51.5323 102.026 52.5628 101.57 53.8064C101.114 55.0501 100.705 56.045 100.652 56.0272C100.598 56.0035 100.924 54.979 101.374 53.7354Z" fill="#FFDCE4"/>
<path d="M100.285 56.0332C100.35 55.8496 100.551 55.7608 100.735 55.8259C100.918 55.891 101.007 56.0924 100.942 56.276C100.877 56.4596 100.675 56.5484 100.492 56.4832C100.308 56.4122 100.213 56.2108 100.285 56.0332Z" fill="#F89730"/>
<path d="M100.675 53.2853C101.528 52.2667 102.257 51.4791 102.298 51.5146C102.345 51.5501 101.688 52.4088 100.835 53.4215C99.9825 54.4401 99.2541 55.2277 99.2127 55.1922C99.1653 55.1567 99.8226 54.3039 100.675 53.2853Z" fill="#FFDCE4"/>
<path d="M98.8573 55.0678C98.9817 54.9197 99.2008 54.902 99.3489 55.0264C99.4969 55.1507 99.5147 55.3698 99.3903 55.5179C99.266 55.6659 99.0468 55.6837 98.8988 55.5593C98.7567 55.435 98.733 55.2158 98.8573 55.0678Z" fill="#F89730"/>
<path d="M100.131 52.551C101.279 51.8877 102.233 51.3903 102.263 51.4435C102.292 51.4968 101.386 52.0713 100.237 52.7346C99.0883 53.3978 98.1348 53.8953 98.1052 53.842C98.0756 53.7946 98.9817 53.2142 100.131 52.551Z" fill="#FFDCE4"/>
<path d="M97.8506 53.6761C98.0164 53.5814 98.2296 53.6347 98.3243 53.8064C98.4191 53.9722 98.3658 54.1855 98.1941 54.2802C98.0282 54.375 97.8151 54.3216 97.7203 54.1499C97.6255 53.99 97.6848 53.7768 97.8506 53.6761Z" fill="#F89730"/>
<path d="M99.9174 51.8285C101.22 51.5975 102.292 51.4554 102.298 51.5146C102.31 51.5738 101.256 51.8048 99.9529 52.0357C98.6442 52.2667 97.5782 52.4089 97.5723 52.3496C97.5604 52.2904 98.6086 52.0595 99.9174 51.8285Z" fill="#FFDCE4"/>
<path d="M97.3768 52.0298C97.5663 51.9942 97.7499 52.1246 97.7795 52.3141C97.8151 52.5036 97.6848 52.6871 97.4953 52.7168C97.3058 52.7523 97.1222 52.622 97.0926 52.4325C97.063 52.243 97.1873 52.0594 97.3768 52.0298Z" fill="#F89730"/>
<path d="M99.9529 50.9934C101.262 51.2244 102.31 51.4554 102.298 51.5146C102.286 51.5738 101.22 51.4317 99.9174 51.2007C98.6086 50.9698 97.5604 50.7388 97.5723 50.6796C97.5782 50.6204 98.6442 50.7625 99.9529 50.9934Z" fill="#FFDCE4"/>
<path d="M97.5012 50.3125C97.6907 50.348 97.815 50.5256 97.7854 50.7152C97.7499 50.9047 97.5722 51.029 97.3827 50.9994C97.1932 50.9639 97.0689 50.7862 97.0985 50.5967C97.1281 50.4072 97.3117 50.2828 97.5012 50.3125Z" fill="#F89730"/>
<path d="M100.273 50.2236C101.422 50.8869 102.328 51.4672 102.298 51.5146C102.268 51.5679 101.315 51.0704 100.166 50.4072C99.0173 49.7439 98.1112 49.1635 98.1408 49.1162C98.1704 49.0629 99.1238 49.5603 100.273 50.2236Z" fill="#FFDCE4"/>
<path d="M98.2 48.743C98.3658 48.8378 98.425 49.051 98.3303 49.2168C98.2355 49.3826 98.0223 49.4418 97.8565 49.3471C97.6907 49.2523 97.6315 49.0392 97.7262 48.8733C97.821 48.7075 98.0342 48.6483 98.2 48.743Z" fill="#F89730"/>
<path d="M100.835 49.6077C101.688 50.6263 102.34 51.4791 102.298 51.5146C102.251 51.5501 101.528 50.7566 100.675 49.7439C99.8226 48.7253 99.1712 47.8725 99.2127 47.837C99.2541 47.7955 99.9825 48.5891 100.835 49.6077Z" fill="#FFDCE4"/>
<path d="M99.3963 47.5113C99.5206 47.6593 99.5028 47.8784 99.3548 48.0028C99.2067 48.1272 98.9876 48.1094 98.8633 47.9613C98.7389 47.8133 98.7567 47.5942 98.9047 47.4698C99.0469 47.3455 99.2719 47.3632 99.3963 47.5113Z" fill="#F89730"/>
<path d="M101.576 49.2227C102.032 50.4664 102.351 51.4968 102.298 51.5146C102.245 51.5323 101.83 50.5433 101.38 49.2938C100.924 48.0501 100.604 47.0197 100.658 47.0019C100.711 46.9842 101.12 47.9732 101.576 49.2227Z" fill="#FFDCE4"/>
<path d="M100.936 46.7592C101.001 46.9428 100.906 47.1382 100.729 47.2093C100.545 47.2744 100.35 47.1797 100.279 47.002C100.208 46.8243 100.308 46.623 100.486 46.5519C100.669 46.4868 100.871 46.5756 100.936 46.7592Z" fill="#F89730"/>
<path d="M102.298 51.5087C102.357 51.5087 102.405 50.4348 102.405 49.1102C102.405 47.7856 102.357 46.7118 102.298 46.7118C102.239 46.7118 102.191 47.7856 102.191 49.1102C102.191 50.4348 102.239 51.5087 102.298 51.5087Z" fill="#FFDCE4"/>
<path d="M102.298 46.9309C102.491 46.9309 102.647 46.7745 102.647 46.5815C102.647 46.3886 102.491 46.2321 102.298 46.2321C102.105 46.2321 101.949 46.3886 101.949 46.5815C101.949 46.7745 102.105 46.9309 102.298 46.9309Z" fill="#F89730"/>
<path d="M102.298 53.1432C103.198 53.1432 103.927 52.4141 103.927 51.5146C103.927 50.6152 103.198 49.886 102.298 49.886C101.399 49.886 100.669 50.6152 100.669 51.5146C100.669 52.4141 101.399 53.1432 102.298 53.1432Z" fill="#EF92A6"/>
<path d="M103.477 51.5146C103.477 52.166 102.949 52.6931 102.298 52.6931C101.647 52.6931 101.12 52.166 101.12 51.5146C101.12 50.8632 101.647 50.3361 102.298 50.3361C102.949 50.3361 103.477 50.8632 103.477 51.5146Z" fill="#934735"/>
<path d="M13.7926 29.745C12.62 29.822 11.6251 30.6156 10.5888 31.1071C10.873 30.207 11.3527 29.366 11.5126 28.4303C11.6014 27.9151 11.5955 27.3584 11.2935 26.9143C11.0744 26.5886 10.7842 26.3813 10.4703 26.2747C9.56424 25.9667 8.45682 26.5116 8.27915 27.5953C8.09557 28.7028 8.5871 29.8042 8.84175 30.8761C8.11926 30.355 7.47968 29.7095 6.67427 29.3068C6.20643 29.0699 5.67345 28.9159 5.15822 29.0758C4.78513 29.1943 4.50087 29.4075 4.30544 29.6799C3.74877 30.4557 3.95012 31.6756 4.93318 32.1612C5.9044 32.6409 7.04737 32.5165 8.11926 32.5698C7.40861 33.0436 6.62097 33.4167 5.99323 34.003C5.61422 34.3583 5.28259 34.8084 5.2589 35.3473C5.24113 35.7382 5.34772 36.0816 5.53131 36.3541C6.07022 37.1476 7.28425 37.3727 8.0778 36.6087C8.85952 35.8625 9.13785 34.7433 9.54648 33.7543C9.74783 34.5834 9.82482 35.4539 10.1683 36.2475C10.3756 36.7272 10.6835 37.1891 11.181 37.3964C11.5422 37.5503 11.8975 37.5622 12.2173 37.4852C13.1471 37.2483 13.7748 36.1883 13.3307 35.1815C12.8925 34.1925 11.939 33.547 11.1514 32.8245C11.9982 32.9192 12.8451 33.1443 13.7038 33.091C14.2249 33.0614 14.7638 32.9252 15.131 32.5284C15.3975 32.2382 15.5337 31.9125 15.5692 31.5809C15.6699 30.6215 14.8882 29.674 13.7926 29.745Z" fill="#FFE8EC"/>
<path d="M9.00166 30.8228C9.46358 31.3736 9.81298 31.8296 9.78929 31.8533C9.7656 31.8711 9.37475 31.4447 8.91283 30.8939C8.45091 30.3432 8.1015 29.8872 8.12519 29.8635C8.14888 29.8398 8.54566 30.278 9.00166 30.8228Z" fill="#FFEAEE"/>
<path d="M8.22586 29.6918C8.29101 29.7687 8.28509 29.8931 8.20218 29.9583C8.11927 30.0234 8.00082 30.0175 7.93568 29.9345C7.87054 29.8576 7.87646 29.7332 7.95937 29.6681C8.04228 29.6029 8.16072 29.6148 8.22586 29.6918Z" fill="#F89730"/>
<path d="M9.40434 30.6156C9.64715 31.2907 9.8248 31.8415 9.79519 31.8533C9.76558 31.8652 9.54055 31.3262 9.29774 30.6571C9.05494 29.9819 8.87727 29.4312 8.90688 29.4193C8.93649 29.4075 9.16154 29.9464 9.40434 30.6156Z" fill="#FFEAEE"/>
<path d="M9.06086 29.289C9.09639 29.3897 9.04901 29.4963 8.94834 29.5318C8.84766 29.5674 8.74106 29.5141 8.70553 29.4193C8.67 29.3186 8.7233 29.2121 8.81805 29.1765C8.9128 29.141 9.02533 29.1884 9.06086 29.289Z" fill="#F89730"/>
<path d="M9.84849 30.5564C9.84849 31.273 9.8248 31.8533 9.78927 31.8533C9.75966 31.8533 9.73004 31.273 9.73004 30.5564C9.73004 29.8398 9.75373 29.2595 9.78927 29.2595C9.8248 29.2595 9.84849 29.8398 9.84849 30.5564Z" fill="#FFEAEE"/>
<path d="M9.98469 29.1884C9.98469 29.295 9.90178 29.3779 9.79518 29.3779C9.68859 29.3779 9.60568 29.295 9.60568 29.1884C9.60568 29.0818 9.68859 28.9989 9.79518 28.9989C9.89586 29.0048 9.98469 29.0877 9.98469 29.1884Z" fill="#F89730"/>
<path d="M10.2926 30.6571C10.0498 31.3322 9.8248 31.8652 9.79519 31.8533C9.76558 31.8415 9.93732 31.2907 10.186 30.6156C10.4289 29.9405 10.6539 29.4075 10.6835 29.4193C10.7131 29.4312 10.5355 29.9819 10.2926 30.6571Z" fill="#FFDCE4"/>
<path d="M10.879 29.4134C10.8434 29.5141 10.7368 29.5614 10.6362 29.5259C10.5355 29.4904 10.4881 29.3838 10.5236 29.2831C10.5592 29.1825 10.6658 29.1351 10.7664 29.1706C10.8671 29.2061 10.9145 29.3187 10.879 29.4134Z" fill="#F89730"/>
<path d="M10.6717 30.8998C10.2098 31.4506 9.81891 31.8769 9.79522 31.8592C9.77153 31.8414 10.1269 31.3795 10.5829 30.8287C11.0448 30.278 11.4356 29.8516 11.4593 29.8694C11.483 29.8871 11.1336 30.3491 10.6717 30.8998Z" fill="#FFDCE4"/>
<path d="M11.6488 29.9345C11.5837 30.0115 11.4652 30.0234 11.3823 29.9583C11.2994 29.8931 11.2935 29.7747 11.3586 29.6918C11.4238 29.6148 11.5422 29.6029 11.6251 29.6681C11.708 29.7391 11.7199 29.8576 11.6488 29.9345Z" fill="#F89730"/>
<path d="M10.9441 31.2552C10.3223 31.6105 9.80705 31.8829 9.79521 31.8533C9.77744 31.8237 10.269 31.5157 10.8908 31.1545C11.5126 30.7992 12.0278 30.5268 12.0397 30.5564C12.0574 30.586 11.5659 30.8999 10.9441 31.2552Z" fill="#FFDCE4"/>
<path d="M12.1937 30.6867C12.1048 30.74 11.9864 30.7104 11.939 30.6156C11.8857 30.5268 11.9153 30.4084 12.0101 30.361C12.0989 30.3077 12.2173 30.3373 12.2647 30.432C12.318 30.5209 12.2825 30.6334 12.1937 30.6867Z" fill="#F89730"/>
<path d="M11.0803 31.6875C10.3756 31.8119 9.80113 31.8888 9.79521 31.8592C9.78929 31.8296 10.3578 31.6993 11.0625 31.575C11.7673 31.4506 12.3417 31.3736 12.3476 31.4032C12.3536 31.4388 11.785 31.5631 11.0803 31.6875Z" fill="#FFDCE4"/>
<path d="M12.4483 31.5809C12.3476 31.5987 12.247 31.5335 12.2292 31.4269C12.2114 31.3262 12.2825 31.2256 12.3832 31.2078C12.4839 31.19 12.5845 31.2611 12.6023 31.3618C12.6201 31.4625 12.5549 31.5572 12.4483 31.5809Z" fill="#F89730"/>
<path d="M11.0625 32.1376C10.3578 32.0132 9.78929 31.8889 9.79521 31.8592C9.80113 31.8296 10.3756 31.9066 11.0803 32.031C11.785 32.1554 12.3536 32.2797 12.3476 32.3153C12.3417 32.3389 11.7673 32.262 11.0625 32.1376Z" fill="#FFDCE4"/>
<path d="M12.3832 32.5047C12.2825 32.487 12.2114 32.3863 12.2292 32.2856C12.247 32.1849 12.3476 32.1139 12.4483 32.1316C12.549 32.1494 12.6201 32.2501 12.6023 32.3507C12.5845 32.4514 12.4898 32.5225 12.3832 32.5047Z" fill="#F89730"/>
<path d="M10.8849 32.5521C10.2631 32.1968 9.77746 31.8829 9.78931 31.8533C9.80707 31.8237 10.3223 32.0961 10.9382 32.4514C11.56 32.8068 12.0456 33.1207 12.0338 33.1503C12.0219 33.1799 11.5067 32.9134 10.8849 32.5521Z" fill="#FFDCE4"/>
<path d="M12.0041 33.3516C11.9153 33.2983 11.8857 33.1858 11.9331 33.097C11.9864 33.0081 12.0989 32.9785 12.1877 33.0259C12.2765 33.0792 12.3061 33.1917 12.2588 33.2805C12.2114 33.3694 12.0989 33.4049 12.0041 33.3516Z" fill="#F89730"/>
<path d="M10.5828 32.8838C10.1209 32.333 9.77152 31.877 9.7952 31.8533C9.81889 31.8356 10.2098 32.2619 10.6717 32.8127C11.1336 33.3634 11.483 33.8194 11.4593 33.8431C11.4356 33.8609 11.0448 33.4345 10.5828 32.8838Z" fill="#FFDCE4"/>
<path d="M11.3586 34.0149C11.2935 33.9379 11.2994 33.8135 11.3823 33.7484C11.4593 33.6832 11.5837 33.6892 11.6488 33.7721C11.7139 33.855 11.708 33.9735 11.6251 34.0386C11.5481 34.1097 11.4297 34.0978 11.3586 34.0149Z" fill="#F89730"/>
<path d="M10.1861 33.091C9.94327 32.4159 9.76561 31.8652 9.79522 31.8533C9.82483 31.8415 10.0499 32.3804 10.2927 33.0496C10.5355 33.7247 10.7131 34.2755 10.6835 34.2873C10.648 34.3051 10.4289 33.7662 10.1861 33.091Z" fill="#FFDCE4"/>
<path d="M10.5295 34.4235C10.494 34.3228 10.5473 34.2162 10.6421 34.1807C10.7427 34.1451 10.8493 34.1925 10.8849 34.2932C10.9204 34.3939 10.8671 34.5005 10.7723 34.536C10.6717 34.5715 10.5651 34.5182 10.5295 34.4235Z" fill="#F89730"/>
<path d="M9.73685 33.1503C9.73685 32.4337 9.76053 31.8533 9.79606 31.8533C9.82567 31.8533 9.85529 32.4337 9.85529 33.1503C9.85529 33.8668 9.83159 34.4472 9.79606 34.4472C9.76053 34.4472 9.73685 33.8668 9.73685 33.1503Z" fill="#FFDCE4"/>
<path d="M9.60568 34.5182C9.60568 34.4116 9.68859 34.3287 9.79518 34.3287C9.90178 34.3287 9.98469 34.4116 9.98469 34.5182C9.98469 34.6248 9.90178 34.7077 9.79518 34.7077C9.68859 34.7077 9.60568 34.6248 9.60568 34.5182Z" fill="#F89730"/>
<path d="M9.29774 33.0555C9.54055 32.3804 9.76558 31.8474 9.79519 31.8592C9.8248 31.871 9.65307 32.4218 9.40434 33.0969C9.16154 33.772 8.93649 34.305 8.90688 34.2932C8.87727 34.2814 9.04901 33.7247 9.29774 33.0555Z" fill="#FFDCE4"/>
<path d="M8.70555 34.2932C8.74108 34.1925 8.84768 34.1451 8.94835 34.1807C9.04903 34.2162 9.09641 34.3228 9.06088 34.4235C9.02534 34.5241 8.91874 34.5715 8.81807 34.536C8.71739 34.5005 8.67002 34.3939 8.70555 34.2932Z" fill="#F89730"/>
<path d="M8.91873 32.8127C9.38065 32.2619 9.7715 31.8356 9.79519 31.8533C9.81888 31.8711 9.46356 32.333 9.00756 32.8838C8.54564 33.4345 8.15478 33.8609 8.13109 33.8431C8.10148 33.8194 8.4568 33.3575 8.91873 32.8127Z" fill="#FFDCE4"/>
<path d="M7.93568 33.772C8.00083 33.6951 8.11928 33.6832 8.20219 33.7483C8.27917 33.8135 8.29101 33.9319 8.22587 34.0148C8.16073 34.0918 8.04229 34.1037 7.95938 34.0385C7.88239 33.9734 7.87054 33.855 7.93568 33.772Z" fill="#F89730"/>
<path d="M8.62264 32.4159C9.24446 32.0606 9.75968 31.7882 9.77153 31.8178C9.78929 31.8474 9.29776 32.1554 8.67594 32.5166C8.05412 32.8719 7.53891 33.1444 7.52707 33.1148C7.51522 33.0851 8.00675 32.7712 8.62264 32.4159Z" fill="#FFDCE4"/>
<path d="M7.39084 33.0259C7.47967 32.9726 7.59812 33.0022 7.64549 33.097C7.69879 33.1858 7.66918 33.3042 7.57442 33.3516C7.48559 33.4049 7.36715 33.3753 7.31978 33.2805C7.2724 33.1917 7.30201 33.0733 7.39084 33.0259Z" fill="#F89730"/>
<path d="M8.5042 32.0251C9.20893 31.9007 9.78337 31.8237 9.78929 31.8533C9.79521 31.8829 9.22669 32.0132 8.52197 32.1316C7.81724 32.256 7.2428 32.333 7.23688 32.3034C7.23688 32.2738 7.79947 32.1494 8.5042 32.0251Z" fill="#FFDCE4"/>
<path d="M7.1362 32.1316C7.23687 32.1139 7.33755 32.1849 7.35531 32.2856C7.37308 32.3863 7.30202 32.487 7.20134 32.5047C7.10067 32.5225 6.99999 32.4514 6.98222 32.3507C6.96445 32.2501 7.03552 32.1494 7.1362 32.1316Z" fill="#F89730"/>
<path d="M8.5279 31.575C9.23263 31.6994 9.80115 31.8237 9.79523 31.8593C9.7893 31.8889 9.21486 31.8119 8.51014 31.6875C7.80541 31.5632 7.23689 31.4388 7.24281 31.4092C7.24281 31.3737 7.82318 31.4506 8.5279 31.575Z" fill="#FFDCE4"/>
<path d="M7.20134 31.2078C7.30202 31.2256 7.37308 31.3262 7.35531 31.4269C7.33755 31.5276 7.23687 31.5987 7.1362 31.5809C7.03552 31.5631 6.96445 31.4625 6.98222 31.3618C6.99999 31.2552 7.10067 31.19 7.20134 31.2078Z" fill="#F89730"/>
<path d="M8.69963 31.1545C9.32145 31.5098 9.80706 31.8237 9.79521 31.8533C9.77745 31.8829 9.26223 31.6105 8.64634 31.2552C8.02452 30.8999 7.53891 30.586 7.55075 30.5564C7.56259 30.5327 8.07782 30.7992 8.69963 31.1545Z" fill="#FFDCE4"/>
<path d="M7.58038 30.361C7.66921 30.4143 7.69882 30.5268 7.65144 30.6156C7.59814 30.7045 7.48563 30.7341 7.3968 30.6867C7.30797 30.6334 7.27835 30.5209 7.32573 30.432C7.3731 30.3373 7.49155 30.3077 7.58038 30.361Z" fill="#F89730"/>
<path d="M9.00166 30.8228C9.46358 31.3736 9.81298 31.8296 9.78929 31.8533C9.7656 31.8711 9.37475 31.4447 8.91283 30.8939C8.45091 30.3432 8.1015 29.8872 8.12519 29.8635C8.14888 29.8398 8.54566 30.278 9.00166 30.8228Z" fill="#FFDCE4"/>
<path d="M8.22586 29.6918C8.29101 29.7687 8.28509 29.8931 8.20218 29.9583C8.11927 30.0234 8.00082 30.0175 7.93568 29.9345C7.87054 29.8576 7.87646 29.7332 7.95937 29.6681C8.04228 29.6029 8.16072 29.6148 8.22586 29.6918Z" fill="#F89730"/>
<path d="M9.40434 30.6156C9.64715 31.2907 9.8248 31.8415 9.79519 31.8533C9.76558 31.8652 9.54055 31.3262 9.29774 30.6571C9.05494 29.9819 8.87727 29.4312 8.90688 29.4193C8.93649 29.4075 9.16154 29.9464 9.40434 30.6156Z" fill="#FFDCE4"/>
<path d="M9.06086 29.289C9.09639 29.3897 9.04901 29.4963 8.94834 29.5318C8.84766 29.5674 8.74106 29.5141 8.70553 29.4193C8.67 29.3186 8.7233 29.2121 8.81805 29.1765C8.9128 29.141 9.02533 29.1884 9.06086 29.289Z" fill="#F89730"/>
<path d="M9.84849 30.5564C9.84849 31.273 9.8248 31.8533 9.78927 31.8533C9.75966 31.8533 9.73004 31.273 9.73004 30.5564C9.73004 29.8398 9.75373 29.2595 9.78927 29.2595C9.8248 29.2595 9.84849 29.8398 9.84849 30.5564Z" fill="#FFDCE4"/>
<path d="M9.98469 29.1884C9.98469 29.295 9.90178 29.3779 9.79518 29.3779C9.68859 29.3779 9.60568 29.295 9.60568 29.1884C9.60568 29.0818 9.68859 28.9989 9.79518 28.9989C9.89586 29.0048 9.98469 29.0877 9.98469 29.1884Z" fill="#F89730"/>
<path d="M9.7952 32.7357C10.2825 32.7357 10.6776 32.3406 10.6776 31.8533C10.6776 31.366 10.2825 30.9709 9.7952 30.9709C9.30786 30.9709 8.91281 31.366 8.91281 31.8533C8.91281 32.3406 9.30786 32.7357 9.7952 32.7357Z" fill="#EF92A6"/>
<path d="M10.4289 31.8533C10.4289 32.2027 10.1446 32.4929 9.78927 32.4929C9.43987 32.4929 9.14969 32.2087 9.14969 31.8533C9.14969 31.5039 9.43395 31.2137 9.78927 31.2137C10.1446 31.2197 10.4289 31.5039 10.4289 31.8533Z" fill="#934735"/>
<path d="M120.988 4.84864C119.395 4.95524 118.039 6.03307 116.629 6.69634C117.014 5.47639 117.666 4.3275 117.891 3.05425C118.015 2.35544 118.003 1.59742 117.589 0.987449C117.293 0.549216 116.896 0.264955 116.47 0.116903C115.238 -0.303564 113.734 0.436695 113.485 1.91129C113.236 3.42142 113.899 4.91379 114.249 6.37654C113.266 5.67182 112.395 4.78942 111.3 4.23866C110.666 3.91887 109.938 3.7116 109.233 3.92479C108.724 4.08469 108.339 4.37488 108.078 4.74204C107.314 5.8021 107.592 7.45436 108.931 8.11764C110.251 8.76906 111.809 8.60324 113.266 8.66838C112.295 9.31389 111.223 9.81726 110.37 10.6227C109.855 11.1083 109.405 11.7242 109.369 12.4585C109.345 12.9915 109.487 13.4534 109.742 13.8265C110.476 14.9043 112.123 15.2123 113.207 14.1759C114.273 13.1573 114.646 11.6353 115.208 10.291C115.481 11.4221 115.587 12.6006 116.055 13.6785C116.333 14.3299 116.76 14.9576 117.435 15.2419C117.926 15.4492 118.412 15.4728 118.85 15.3603C120.112 15.0405 120.964 13.5956 120.366 12.2276C119.774 10.8773 118.471 10.0068 117.405 9.01779C118.56 9.14807 119.709 9.45009 120.882 9.38495C121.592 9.3435 122.327 9.15993 122.824 8.62102C123.185 8.23016 123.375 7.78007 123.416 7.33592C123.546 6.0449 122.481 4.75388 120.988 4.84864Z" fill="#F490A6"/>
<path d="M114.474 6.3173C115.102 7.06348 115.581 7.69122 115.546 7.72083C115.51 7.75044 114.977 7.16416 114.349 6.41798C113.722 5.6718 113.242 5.04404 113.278 5.01443C113.313 4.99074 113.846 5.57112 114.474 6.3173Z" fill="#FFEAEE"/>
<path d="M113.414 4.77757C113.503 4.88417 113.491 5.04999 113.384 5.13883C113.278 5.22766 113.112 5.2158 113.023 5.1092C112.934 5.00261 112.946 4.8368 113.053 4.74797C113.159 4.65914 113.325 4.67097 113.414 4.77757Z" fill="#F89730"/>
<path d="M115.019 6.03898C115.35 6.95691 115.587 7.70901 115.552 7.72085C115.51 7.7327 115.208 7.00428 114.877 6.09228C114.545 5.17436 114.308 4.42226 114.344 4.41041C114.379 4.39265 114.687 5.12106 115.019 6.03898Z" fill="#FFEAEE"/>
<path d="M114.551 4.22686C114.598 4.35715 114.533 4.5052 114.397 4.55849C114.267 4.60587 114.119 4.54072 114.071 4.40451C114.024 4.27423 114.089 4.12618 114.225 4.07881C114.355 4.02551 114.503 4.09657 114.551 4.22686Z" fill="#F89730"/>
<path d="M115.623 5.95607C115.623 6.93321 115.587 7.72084 115.546 7.72084C115.504 7.72084 115.469 6.93321 115.469 5.95607C115.469 4.97893 115.504 4.19128 115.546 4.19128C115.587 4.19128 115.623 4.98485 115.623 5.95607Z" fill="#FFEAEE"/>
<path d="M115.806 4.09656C115.806 4.23869 115.694 4.35121 115.552 4.35121C115.41 4.35121 115.297 4.23869 115.297 4.09656C115.297 3.95443 115.41 3.84192 115.552 3.84192C115.688 3.84192 115.806 3.95443 115.806 4.09656Z" fill="#F89730"/>
<path d="M116.227 6.09228C115.895 7.0102 115.593 7.73862 115.552 7.72085C115.51 7.70901 115.747 6.95098 116.085 6.03898C116.416 5.12106 116.718 4.39265 116.76 4.41041C116.795 4.42226 116.558 5.17436 116.227 6.09228Z" fill="#FFDCE4"/>
<path d="M117.026 4.4045C116.979 4.53479 116.831 4.60586 116.695 4.55848C116.564 4.5111 116.493 4.36305 116.541 4.22685C116.588 4.09064 116.736 4.02549 116.866 4.07287C117.009 4.12024 117.08 4.26829 117.026 4.4045Z" fill="#F89730"/>
<path d="M116.742 6.41804C116.114 7.16422 115.581 7.74458 115.546 7.72089C115.51 7.69128 115.996 7.06354 116.618 6.31736C117.245 5.57118 117.778 4.99081 117.814 5.01449C117.849 5.0441 117.37 5.67186 116.742 6.41804Z" fill="#FFDCE4"/>
<path d="M118.074 5.10926C117.986 5.21586 117.82 5.23364 117.713 5.13888C117.607 5.05005 117.589 4.88422 117.684 4.77763C117.772 4.67103 117.938 4.65327 118.045 4.74802C118.151 4.83686 118.163 5.00266 118.074 5.10926Z" fill="#F89730"/>
<path d="M117.115 6.90363C116.274 7.38924 115.569 7.75641 115.546 7.72088C115.522 7.68535 116.191 7.25895 117.032 6.77334C117.879 6.28773 118.578 5.92058 118.602 5.95611C118.625 5.99164 117.956 6.41802 117.115 6.90363Z" fill="#FFDCE4"/>
<path d="M118.815 6.1278C118.69 6.19887 118.536 6.15741 118.465 6.03304C118.394 5.90868 118.436 5.75471 118.56 5.68364C118.684 5.61258 118.838 5.65404 118.909 5.7784C118.981 5.90276 118.939 6.06266 118.815 6.1278Z" fill="#F89730"/>
<path d="M117.299 7.48989C116.339 7.66163 115.558 7.7623 115.546 7.72084C115.54 7.67939 116.31 7.50765 117.269 7.33591C118.228 7.16417 119.01 7.06349 119.022 7.10494C119.028 7.15232 118.258 7.32407 117.299 7.48989Z" fill="#FFDCE4"/>
<path d="M119.164 7.34185C119.022 7.36554 118.892 7.27078 118.868 7.13458C118.844 6.99245 118.939 6.86216 119.075 6.83847C119.212 6.81478 119.348 6.90954 119.371 7.04575C119.395 7.18196 119.3 7.31816 119.164 7.34185Z" fill="#F89730"/>
<path d="M117.275 8.10578C116.316 7.93404 115.546 7.7623 115.552 7.72085C115.558 7.67939 116.345 7.78008 117.305 7.95182C118.264 8.12356 119.034 8.2953 119.028 8.33675C119.016 8.3782 118.234 8.2716 117.275 8.10578Z" fill="#FFDCE4"/>
<path d="M119.075 8.60326C118.933 8.57957 118.844 8.44337 118.868 8.30716C118.892 8.16503 119.028 8.07619 119.164 8.09988C119.306 8.12357 119.395 8.25978 119.371 8.39599C119.348 8.53219 119.212 8.62695 119.075 8.60326Z" fill="#F89730"/>
<path d="M117.038 8.66839C116.197 8.18278 115.528 7.75639 115.552 7.72086C115.575 7.68532 116.274 8.04657 117.121 8.53811C117.968 9.02372 118.631 9.45011 118.607 9.48564C118.584 9.52117 117.879 9.15992 117.038 8.66839Z" fill="#FFDCE4"/>
<path d="M118.56 9.75799C118.436 9.68692 118.394 9.53295 118.465 9.40859C118.536 9.28422 118.69 9.24277 118.815 9.31383C118.939 9.3849 118.981 9.53887 118.909 9.66323C118.838 9.78167 118.684 9.82905 118.56 9.75799Z" fill="#F89730"/>
<path d="M116.624 9.12439C115.996 8.37821 115.516 7.75047 115.552 7.72086C115.587 7.69125 116.12 8.27754 116.748 9.02373C117.376 9.76991 117.855 10.3976 117.82 10.4273C117.784 10.4509 117.251 9.87057 116.624 9.12439Z" fill="#FFDCE4"/>
<path d="M117.684 10.6641C117.595 10.5575 117.607 10.3917 117.713 10.3029C117.82 10.2141 117.986 10.2259 118.074 10.3325C118.163 10.4391 118.151 10.6049 118.045 10.6938C117.932 10.7885 117.772 10.7707 117.684 10.6641Z" fill="#F89730"/>
<path d="M116.079 9.40271C115.747 8.48479 115.51 7.73269 115.546 7.72085C115.587 7.709 115.889 8.43742 116.221 9.34942C116.552 10.2673 116.789 11.0194 116.754 11.0313C116.712 11.0491 116.41 10.3206 116.079 9.40271Z" fill="#FFDCE4"/>
<path d="M116.547 11.2149C116.499 11.0846 116.564 10.9365 116.701 10.8892C116.831 10.8418 116.979 10.9069 117.032 11.0431C117.08 11.1734 117.014 11.3215 116.878 11.3688C116.742 11.4162 116.594 11.3511 116.547 11.2149Z" fill="#F89730"/>
<path d="M115.469 9.48567C115.469 8.50853 115.504 7.72089 115.546 7.72089C115.587 7.72089 115.623 8.50853 115.623 9.48567C115.623 10.4628 115.587 11.2504 115.546 11.2504C115.504 11.2504 115.469 10.4628 115.469 9.48567Z" fill="#FFDCE4"/>
<path d="M115.291 11.3452C115.291 11.203 115.404 11.0905 115.546 11.0905C115.688 11.0905 115.8 11.203 115.8 11.3452C115.8 11.4873 115.688 11.5998 115.546 11.5998C115.404 11.5998 115.291 11.4873 115.291 11.3452Z" fill="#F89730"/>
<path d="M114.871 9.35533C115.202 8.43741 115.504 7.70899 115.546 7.72676C115.587 7.7386 115.35 8.49663 115.013 9.40863C114.681 10.3265 114.379 11.055 114.338 11.0372C114.302 11.0254 114.539 10.2673 114.871 9.35533Z" fill="#FFDCE4"/>
<path d="M114.065 11.0372C114.113 10.907 114.261 10.8359 114.391 10.8833C114.521 10.9306 114.592 11.0787 114.545 11.209C114.498 11.3393 114.349 11.4103 114.219 11.3629C114.089 11.3215 114.018 11.1734 114.065 11.0372Z" fill="#F89730"/>
<path d="M114.355 9.02372C114.983 8.27754 115.516 7.69717 115.552 7.72085C115.587 7.75046 115.102 8.3782 114.48 9.12438C113.852 9.87056 113.319 10.4509 113.283 10.4272C113.248 10.3976 113.728 9.7699 114.355 9.02372Z" fill="#FFDCE4"/>
<path d="M113.023 10.3325C113.112 10.2259 113.278 10.2081 113.384 10.3029C113.491 10.3917 113.509 10.5575 113.414 10.6641C113.325 10.7707 113.159 10.7885 113.053 10.6938C112.946 10.6049 112.928 10.4391 113.023 10.3325Z" fill="#F89730"/>
<path d="M113.959 8.48485C114.8 7.99924 115.504 7.63207 115.528 7.6676C115.552 7.70313 114.882 8.12952 114.042 8.61513C113.201 9.10074 112.496 9.46792 112.472 9.43238C112.449 9.39685 113.112 8.97046 113.959 8.48485Z" fill="#FFDCE4"/>
<path d="M112.283 9.31389C112.407 9.24283 112.561 9.28429 112.632 9.40865C112.703 9.53301 112.662 9.68698 112.537 9.75805C112.413 9.82911 112.259 9.78766 112.188 9.66329C112.117 9.53893 112.158 9.38496 112.283 9.31389Z" fill="#F89730"/>
<path d="M113.799 7.95182C114.758 7.78008 115.54 7.67939 115.552 7.72085C115.558 7.7623 114.788 7.93404 113.828 8.10578C112.869 8.27752 112.087 8.3782 112.075 8.33675C112.064 8.28937 112.839 8.11764 113.799 7.95182Z" fill="#FFDCE4"/>
<path d="M111.933 8.09989C112.075 8.0762 112.206 8.17096 112.229 8.30716C112.253 8.44929 112.158 8.57958 112.022 8.60327C111.88 8.62696 111.75 8.5322 111.726 8.39599C111.702 8.25386 111.791 8.12357 111.933 8.09989Z" fill="#F89730"/>
<path d="M113.822 7.33588C114.782 7.50762 115.552 7.67936 115.546 7.72081C115.54 7.76227 114.752 7.6616 113.793 7.48986C112.833 7.31812 112.064 7.14637 112.069 7.10491C112.081 7.06346 112.863 7.17006 113.822 7.33588Z" fill="#FFDCE4"/>
<path d="M112.022 6.83847C112.164 6.86216 112.253 6.99837 112.229 7.13458C112.206 7.27671 112.069 7.36554 111.933 7.34185C111.791 7.31816 111.702 7.18196 111.726 7.04575C111.75 6.90954 111.886 6.81478 112.022 6.83847Z" fill="#F89730"/>
<path d="M114.059 6.77332C114.9 7.25893 115.569 7.68532 115.546 7.72085C115.522 7.75639 114.823 7.39514 113.976 6.9036C113.135 6.41799 112.466 5.99162 112.49 5.95609C112.514 5.92055 113.212 6.28178 114.059 6.77332Z" fill="#FFDCE4"/>
<path d="M112.537 5.68365C112.662 5.75472 112.703 5.90869 112.632 6.03305C112.561 6.15742 112.407 6.19887 112.283 6.12781C112.158 6.05674 112.117 5.90277 112.188 5.77841C112.259 5.65997 112.413 5.61851 112.537 5.68365Z" fill="#F89730"/>
<path d="M114.474 6.3173C115.102 7.06348 115.581 7.69122 115.546 7.72083C115.51 7.75044 114.977 7.16416 114.349 6.41798C113.722 5.6718 113.242 5.04404 113.278 5.01443C113.313 4.99074 113.846 5.57112 114.474 6.3173Z" fill="#FFDCE4"/>
<path d="M113.414 4.77757C113.503 4.88417 113.491 5.04999 113.384 5.13883C113.278 5.22766 113.112 5.2158 113.023 5.1092C112.934 5.00261 112.946 4.8368 113.053 4.74797C113.159 4.65914 113.325 4.67097 113.414 4.77757Z" fill="#F89730"/>
<path d="M115.019 6.03898C115.35 6.95691 115.587 7.70901 115.552 7.72085C115.51 7.7327 115.208 7.00428 114.877 6.09228C114.545 5.17436 114.308 4.42226 114.344 4.41041C114.379 4.39265 114.687 5.12106 115.019 6.03898Z" fill="#FFDCE4"/>
<path d="M114.551 4.22686C114.598 4.35715 114.533 4.5052 114.397 4.55849C114.267 4.60587 114.119 4.54072 114.071 4.40451C114.024 4.27423 114.089 4.12618 114.225 4.07881C114.355 4.02551 114.503 4.09657 114.551 4.22686Z" fill="#F89730"/>
<path d="M115.623 5.95607C115.623 6.93321 115.587 7.72084 115.546 7.72084C115.504 7.72084 115.469 6.93321 115.469 5.95607C115.469 4.97893 115.504 4.19128 115.546 4.19128C115.587 4.19128 115.623 4.98485 115.623 5.95607Z" fill="#FFDCE4"/>
<path d="M115.806 4.09656C115.806 4.23869 115.694 4.35121 115.552 4.35121C115.41 4.35121 115.297 4.23869 115.297 4.09656C115.297 3.95443 115.41 3.84192 115.552 3.84192C115.688 3.84192 115.806 3.95443 115.806 4.09656Z" fill="#F89730"/>
<path d="M115.546 8.91712C116.206 8.91712 116.742 8.38153 116.742 7.72085C116.742 7.06017 116.206 6.5246 115.546 6.5246C114.885 6.5246 114.349 7.06017 114.349 7.72085C114.349 8.38153 114.885 8.91712 115.546 8.91712Z" fill="#EF92A6"/>
<path d="M115.546 8.58544C116.023 8.58544 116.41 8.19834 116.41 7.72082C116.41 7.2433 116.023 6.8562 115.546 6.8562C115.068 6.8562 114.681 7.2433 114.681 7.72082C114.681 8.19834 115.068 8.58544 115.546 8.58544Z" fill="#934735"/>
<path d="M163.494 48.1123L163.591 48.1035C163.954 48.332 164.136 48.6221 164.136 48.9736C164.136 49.4951 163.128 49.8877 161.112 50.1514V49.9756C162.7 49.1318 163.494 48.5107 163.494 48.1123ZM164.32 49.7646C164.994 49.9229 165.331 50.207 165.331 50.6172V50.7051C165.331 51.1621 164.657 51.9854 163.31 53.1748H163.406C164.08 53.0342 164.417 52.8145 164.417 52.5156C164.563 52.5098 164.839 52.7383 165.243 53.2012V53.4648C165.243 53.6348 164.968 54.1475 164.417 55.0029C167.44 56.1631 170.681 57.083 174.138 57.7627C175.421 57.9502 176.124 58.041 176.247 58.0352V58.123C176.153 58.3281 175.327 58.7148 173.769 59.2832C171.829 59.3535 168.955 58.3633 165.146 56.3125C165.146 56.248 164.751 55.9346 163.96 55.3721C162.94 56.3799 162.021 57.0068 161.2 57.2529V57.165C163.099 55.0732 164.048 53.8252 164.048 53.4209L162.949 53.4561L162.765 53.377C162.478 53.7578 162.17 53.9746 161.842 54.0273C162.598 53.0957 163.362 52.0322 164.136 50.8369V50.749C162.952 51.2061 162.343 51.4375 162.308 51.4434C161.88 51.3965 161.666 51.3145 161.666 51.1973V51.1094C162.727 51.0684 163.611 50.6201 164.32 49.7646ZM173.224 48.7979C174.021 48.8154 174.419 48.9238 174.419 49.123V49.1934C174.36 49.7559 173.774 50.5381 172.661 51.54C172.849 51.5283 172.942 51.6953 172.942 52.041V52.1113C173.417 51.9941 173.956 51.8271 174.56 51.6104H174.63C175.192 51.6514 175.474 51.7861 175.474 52.0146C175.409 52.2197 175.292 52.3721 175.122 52.4717C174.899 52.4775 174.665 52.46 174.419 52.4189C173.669 52.501 173.177 52.5713 172.942 52.6299C173.036 53.0986 173.083 53.7549 173.083 54.5986V54.8184C173.083 55.627 172.872 56.1748 172.45 56.4619L171.817 56.4883C171.483 56.5 171.27 56.2627 171.176 55.7764C171.65 55.7588 171.888 55.0645 171.888 53.6934C171.888 53.1074 171.841 52.8174 171.747 52.8232C171.091 52.8936 170.502 53.0137 169.98 53.1836C169.746 53.043 169.559 52.9756 169.418 52.9814V52.8408C170.227 52.7119 171.003 52.5596 171.747 52.3838V52.0146L171.527 52.0234L171.668 51.7949V51.5752C171.668 51.4756 171.598 51.4287 171.457 51.4346V51.2939L171.958 51.3467L172.099 51.3379C172.802 50.5996 173.153 49.9492 173.153 49.3867L173.083 49.3955C171.636 49.9404 170.789 50.3154 170.543 50.5205H170.473C170.414 50.5264 170.227 50.3389 169.91 49.958C169.91 49.8584 170.522 49.7119 171.747 49.5186C172.632 49.29 173.124 49.0498 173.224 48.7979ZM170.2 45.6602C170.177 45.666 170.174 45.6602 170.191 45.6426C170.215 45.625 170.253 45.6016 170.306 45.5723C170.394 45.5195 170.484 45.458 170.578 45.3877C170.672 45.3174 170.722 45.2529 170.728 45.1943C170.851 45.2061 171 45.2881 171.176 45.4404C171.357 45.5928 171.507 45.7803 171.624 46.0029C171.741 46.2197 171.771 46.4395 171.712 46.6621C171.606 47.0781 171.398 47.5498 171.088 48.0771C171.586 48.0127 172.078 47.9219 172.564 47.8047C173.051 47.6816 173.429 47.5557 173.698 47.4268C173.745 47.4033 173.81 47.4062 173.892 47.4355C173.979 47.459 174.067 47.4941 174.155 47.541C174.243 47.5879 174.316 47.6318 174.375 47.6729C174.439 47.7139 174.472 47.7344 174.472 47.7344C174.478 47.752 174.48 47.7842 174.48 47.8311C174.48 47.8721 174.478 47.9072 174.472 47.9365C174.472 47.9541 174.472 47.9658 174.472 47.9717C174.472 47.9775 174.454 48.001 174.419 48.042C174.39 48.083 174.343 48.127 174.278 48.1738C174.214 48.2207 174.138 48.2588 174.05 48.2881C173.962 48.3115 173.865 48.3086 173.76 48.2793C173.619 48.2559 173.361 48.2764 172.986 48.3408C172.611 48.4053 172.245 48.4814 171.888 48.5693C171.536 48.6572 171.319 48.7217 171.237 48.7627L170.877 48.4199C170.596 48.8594 170.306 49.252 170.007 49.5977C169.708 49.9434 169.447 50.1777 169.225 50.3008C169.295 50.166 169.415 49.8555 169.585 49.3691C169.755 48.8828 169.922 48.3496 170.086 47.7695C170.25 47.1836 170.355 46.6826 170.402 46.2666C170.449 45.8506 170.382 45.6484 170.2 45.6602ZM169.128 53.1045C169.128 53.1045 169.116 53.1338 169.093 53.1924C169.04 53.3506 168.938 53.5996 168.785 53.9395C168.639 54.2793 168.445 54.6016 168.205 54.9062C167.971 55.2109 167.698 55.3838 167.388 55.4248C167.112 55.4424 166.942 55.3691 166.878 55.2051C166.819 55.0352 166.796 54.8242 166.808 54.5723C166.813 54.3906 166.805 54.209 166.781 54.0273C166.758 53.8457 166.69 53.6846 166.579 53.5439C166.597 53.5557 166.614 53.5674 166.632 53.5791C166.755 53.6436 166.852 53.6934 166.922 53.7285C166.998 53.7637 167.071 53.7959 167.142 53.8252C167.218 53.8486 167.32 53.8809 167.449 53.9219C167.555 53.9395 167.672 53.7812 167.801 53.4473C167.93 53.1074 168.05 52.7031 168.161 52.2344C168.278 51.7598 168.366 51.3262 168.425 50.9336C168.431 50.8398 168.393 50.7783 168.311 50.749C168.229 50.7197 168.126 50.7051 168.003 50.7051C167.798 51.2266 167.531 51.8154 167.203 52.4717C166.875 53.1221 166.494 53.7168 166.061 54.2559C165.633 54.7891 165.161 55.1406 164.646 55.3105C164.95 54.9707 165.302 54.3994 165.7 53.5967C166.099 52.7881 166.459 51.9678 166.781 51.1357C167.109 50.2979 167.314 49.665 167.396 49.2373C166.934 49.4248 166.532 49.5947 166.192 49.7471C165.853 49.8994 165.662 49.9902 165.621 50.0195C165.369 49.9551 165.108 49.835 164.839 49.6592C164.569 49.4834 164.42 49.3018 164.391 49.1143C164.766 49.0498 165.296 48.9326 165.981 48.7627C166.667 48.5869 167.332 48.4082 167.977 48.2266C167.947 48.1973 167.93 48.1592 167.924 48.1123C167.777 47.0635 167.476 46.4102 167.019 46.1523L166.975 46.126C166.975 46.1201 166.969 46.1201 166.957 46.126C166.945 46.126 166.925 46.1289 166.896 46.1348C166.866 46.1348 166.825 46.1406 166.772 46.1523C166.737 46.1582 166.696 46.1641 166.649 46.1699C166.808 46.0762 166.966 45.9707 167.124 45.8535C167.312 45.7129 167.496 45.5957 167.678 45.502L168.521 45.9414C168.615 46.1875 168.656 46.5391 168.645 46.9961C168.633 47.4473 168.574 47.8047 168.469 48.0684L168.416 48.1035C168.715 48.0215 168.955 47.9541 169.137 47.9014C169.324 47.8486 169.427 47.8193 169.444 47.8135C169.474 47.8076 169.515 47.8193 169.567 47.8486C169.62 47.8721 169.676 47.9014 169.734 47.9365C169.793 47.9717 169.843 48.0039 169.884 48.0332C169.925 48.0625 169.945 48.0771 169.945 48.0771C169.945 48.0889 169.945 48.1123 169.945 48.1475C169.951 48.1768 169.954 48.2031 169.954 48.2266C169.954 48.2383 169.954 48.2471 169.954 48.2529C169.954 48.2588 169.951 48.2705 169.945 48.2881C169.945 48.3057 169.942 48.3262 169.937 48.3496C169.931 48.3672 169.928 48.3789 169.928 48.3848C169.881 48.4902 169.743 48.5078 169.515 48.4375C169.462 48.4316 169.286 48.4844 168.987 48.5957C168.694 48.707 168.343 48.8447 167.933 49.0088C167.962 49.0264 167.991 49.0469 168.021 49.0703C168.138 49.1465 168.249 49.2373 168.354 49.3428C168.46 49.4482 168.495 49.5596 168.46 49.6768C168.407 49.7529 168.305 49.9785 168.152 50.3535C168.158 50.3477 168.188 50.3477 168.24 50.3535C168.299 50.3594 168.366 50.3682 168.442 50.3799C168.519 50.3857 168.589 50.3945 168.653 50.4062C168.718 50.418 168.759 50.4268 168.776 50.4326C168.987 50.4619 169.16 50.5586 169.295 50.7227C169.465 50.9805 169.526 51.2793 169.479 51.6191C169.438 51.9531 169.368 52.2812 169.269 52.6035C169.216 52.7852 169.172 52.9521 169.137 53.1045C169.131 53.1045 169.128 53.1045 169.128 53.1045ZM183.164 46.9434C184.189 47.3887 184.702 47.9014 184.702 48.4814C184.702 48.9795 183.949 49.9053 182.443 51.2588L182.646 51.25C183.612 51.2148 185.019 50.8633 186.864 50.1953C186.741 49.9258 186.331 49.4424 185.634 48.7451V48.6484L185.73 48.6396C188.068 48.8506 189.237 49.6738 189.237 51.1094C189.196 51.707 189.091 52.0088 188.921 52.0146L188.306 52.041C187.819 51.7891 187.512 51.4023 187.383 50.8809H187.277C187.277 51.0801 187.21 51.1826 187.075 51.1885L186.354 51.2148C185.376 51.25 183.967 51.499 182.127 51.9619C181.922 51.9033 181.819 51.8418 181.819 51.7773L179.868 53.1396L179.763 53.1484V53.043C181.427 50.8457 182.593 48.9766 183.261 47.4355L183.059 47.0488C183.129 47.043 183.164 47.0078 183.164 46.9434ZM187.075 52.085C188.101 52.5596 188.613 52.9404 188.613 53.2275C188.367 53.585 188.162 54.8535 187.998 57.0332L187.479 57.4551H187.277C186.949 57.4668 186.536 57.25 186.038 56.8047C184.802 56.8516 183.568 57.1299 182.338 57.6396C182.133 57.6455 181.79 57.5254 181.31 57.2793L181.723 54.5723C181.582 54.0449 181.409 53.6523 181.204 53.3945V53.1924L182.232 53.1572C182.402 53.1514 182.713 53.207 183.164 53.3242C185.496 53.0195 186.662 52.6445 186.662 52.1992L187.075 52.085ZM183.059 53.9219V54.7217C183.059 55.1846 183.126 55.8145 183.261 56.6113C185.253 56.3535 186.249 56.1514 186.249 56.0049V54.0098L186.144 53.3154L183.059 53.9219ZM203.054 44.377C203.317 44.6875 203.449 44.9395 203.449 45.1328C203.449 45.6426 202.523 45.9297 200.672 45.9941V45.8447C201.451 45.6338 202.245 45.1445 203.054 44.377ZM205.031 45.2295L205.189 45.2207C205.717 45.6191 205.98 45.8389 205.98 45.8799C205.781 46.1846 205.28 46.8174 204.478 47.7783V47.8574C205.134 47.5996 205.688 47.1953 206.139 46.6445C206.561 46.8086 206.771 46.9785 206.771 47.1543C206.613 47.5176 206.297 48.0156 205.822 48.6484C206.771 48.9473 207.246 49.3135 207.246 49.7471C207.141 50.0576 207.035 50.2158 206.93 50.2217H206.771C206.701 50.2275 206.543 50.0547 206.297 49.7031C205.295 50.002 204.636 50.2832 204.319 50.5469H204.161L204.003 50.0195V49.9404C204.694 49.1904 205.248 48.4814 205.664 47.8135H205.585C205.099 48.001 204.598 48.4023 204.082 49.0176L203.607 48.3408V48.2705C204.076 47.8721 204.524 47.0869 204.952 45.915C205.005 45.6396 205.031 45.4111 205.031 45.2295ZM198.932 46.0645C198.996 46.0586 199.207 46.2549 199.564 46.6533C199.371 46.9463 198.949 47.4971 198.299 48.3057H198.378C199.169 47.9658 199.564 47.6436 199.564 47.3389L199.802 47.3301C200.118 47.5 200.276 47.623 200.276 47.6992C200.118 48.0625 199.854 48.4814 199.485 48.9561V49.0352C200.224 49.2695 200.593 49.5625 200.593 49.9141V50.1426C200.593 50.2129 200.514 50.292 200.355 50.3799H200.276C200.235 50.3857 200.077 50.2393 199.802 49.9404C198.929 50.2275 198.375 50.4766 198.141 50.6875C197.982 50.4414 197.903 50.2422 197.903 50.0898C198.495 49.5098 198.943 48.9561 199.248 48.4287V48.3496H199.169C198.483 48.6953 198.141 49.0146 198.141 49.3076L198.062 49.3164C197.927 49.3164 197.769 49.0908 197.587 48.6396C197.915 48.6279 198.337 47.7959 198.853 46.1436C198.853 46.0908 198.879 46.0645 198.932 46.0645ZM203.449 46.0469C203.977 46.2754 204.24 46.4453 204.24 46.5566L204.003 46.7236C203.247 46.6475 202.717 46.6152 202.412 46.627L200.751 47.1455C200.704 47.1455 200.493 47.1279 200.118 47.0928V46.9346C201.249 46.6885 202.359 46.3926 203.449 46.0469ZM194.572 47.5234H194.651C196.345 47.459 197.191 48.1182 197.191 49.501L196.954 49.6592L196.796 49.668C196.462 49.6797 195.932 49.1875 195.205 48.1914C194.783 47.9219 194.572 47.749 194.572 47.6729V47.5234ZM202.896 47.4531L203.212 47.4355C203.288 47.4355 203.367 47.5117 203.449 47.6641C203.449 47.7344 203.37 47.8135 203.212 47.9014H203.054C202.802 47.9131 202.535 47.8984 202.254 47.8574C201.697 48.0332 201.275 48.124 200.988 48.1299L200.909 48.1387V48.0596C200.921 47.9834 201.583 47.7812 202.896 47.4531ZM202.975 48.5254C203.291 48.5605 203.449 48.6309 203.449 48.7363L203.212 49.0527C203.165 49.0527 202.954 49.0352 202.579 49C201.677 49.1348 201.067 49.2051 200.751 49.2109V49.0615C201.056 49.0498 201.797 48.8711 202.975 48.5254ZM204.873 49.7559H204.952L206.06 49.3252V49.1758C206.06 49.0938 205.954 48.9941 205.743 48.877C205.673 48.8828 205.383 49.1758 204.873 49.7559ZM198.773 49.8965H198.853C199.38 49.7617 199.644 49.624 199.644 49.4834C199.538 49.3662 199.485 49.2666 199.485 49.1846C199.415 49.1846 199.178 49.4219 198.773 49.8965ZM193.465 49.8613C195.205 49.9727 196.075 50.5029 196.075 51.4521V51.9883C196.075 52.0645 195.996 52.1465 195.838 52.2344L195.442 52.2432C195.038 51.9561 194.537 51.3613 193.939 50.459C193.518 50.1777 193.307 50.0078 193.307 49.9492L193.465 49.8613ZM202.737 49.5273L203.054 49.5186C203.476 49.7822 203.687 49.9521 203.687 50.0283C203.528 50.4795 203.449 50.9951 203.449 51.5752V51.9531C203.449 52.2285 203.344 52.4131 203.133 52.5068L202.816 52.5156C202.541 52.2695 202.301 52.1494 202.096 52.1553C202.049 52.1611 201.891 52.2695 201.621 52.4805L201.463 52.4893C201.287 52.4951 201.103 52.4248 200.909 52.2783C200.962 51.5869 200.988 51.0742 200.988 50.7402C200.988 50.6289 200.962 50.3477 200.909 49.8965H200.988C201.117 49.8906 201.513 49.9023 202.175 49.9316C202.269 49.9258 202.456 49.791 202.737 49.5273ZM201.858 50.248V50.5557C201.882 51.417 201.961 51.874 202.096 51.9268L202.5 51.8389V50.1514H202.412L201.858 50.248ZM199.96 50.5469C200.487 50.834 200.751 51.1328 200.751 51.4434V51.7422C200.751 51.8184 200.672 51.9004 200.514 51.9883C200.391 51.9883 200.153 51.5342 199.802 50.626L199.96 50.5469ZM206.06 50.3271H206.139C206.93 50.6436 207.325 51.0361 207.325 51.5049V51.584C207.325 51.9941 207.22 52.2021 207.009 52.208C206.804 52.2139 206.514 51.6367 206.139 50.4766C206.086 50.4766 206.06 50.4268 206.06 50.3271ZM199.406 50.7227L199.564 50.9424V51.1006C199.512 51.8154 199.406 52.1758 199.248 52.1816C199.037 52.1172 198.932 52.0439 198.932 51.9619V51.5049C198.932 51.2002 199.09 50.9395 199.406 50.7227ZM198.22 50.8369C198.302 50.8369 198.407 50.9365 198.536 51.1357V51.5225C198.413 52.29 198.281 52.6768 198.141 52.6826L197.982 52.6914C197.771 52.6152 197.666 52.4395 197.666 52.1641V51.9355C197.666 51.4727 197.851 51.1064 198.22 50.8369ZM205.585 50.5732C205.743 50.6201 205.822 50.7695 205.822 51.0215L205.585 52.0322L205.348 52.041C205.271 52.041 205.192 51.9678 205.11 51.8213V51.5137C205.11 51.0801 205.269 50.7666 205.585 50.5732ZM204.398 50.6963C204.475 50.6904 204.554 50.7637 204.636 50.916V51.2236C204.542 51.8389 204.41 52.1494 204.24 52.1553C204.082 52.1611 203.977 51.9619 203.924 51.5576C204.082 50.9893 204.24 50.7021 204.398 50.6963ZM197.35 51.5664L197.508 51.5576C196.98 53.21 196.134 55.1582 194.968 57.4023C194.388 57.1562 194.098 56.6025 194.098 55.7412V55.5127C194.555 55.1084 195.639 53.793 197.35 51.5664ZM204.003 52.3223L204.319 52.3047C204.741 52.5742 204.952 52.7471 204.952 52.8232C203.974 53.5322 203.314 54.0654 202.975 54.4229H203.054C203.306 54.417 203.675 54.2764 204.161 54.001C204.513 54.124 204.724 54.2705 204.794 54.4404C204.642 54.5459 203.531 54.8418 201.463 55.3281C201.305 55.5859 201.226 55.791 201.226 55.9434V56.3301C203.183 56.002 204.161 55.6855 204.161 55.3809C204.448 55.3164 204.659 55.2842 204.794 55.2842C205.028 55.3604 205.239 55.5303 205.427 55.7939V55.873C205.187 55.8789 204.923 56.8076 204.636 58.6592C204.231 59.6494 203.651 60.1562 202.896 60.1797C202.251 60.2031 201.879 59.8076 201.779 58.9932C201.68 58.9814 201.601 58.832 201.542 58.5449L201.621 58.5361C201.967 58.7295 202.23 58.8232 202.412 58.8174L202.737 58.8086C203.341 58.7852 203.71 57.9268 203.845 56.2334L203.766 56.2422C202.752 56.3418 201.642 56.7373 200.435 57.4287L200.118 57.4463L199.802 57.2266C199.802 55.5391 199.986 54.6895 200.355 54.6777L201.146 54.5723L201.7 54.625L203.133 53.1133V53.043H203.054C202.767 53.0547 201.946 53.2627 200.593 53.667L200.118 53.2275V53.1484C201.202 53.1074 202.497 52.832 204.003 52.3223Z" fill="white"/>
</g>
<defs>
<filter id="filter0_d_862_8" x="0" y="0" width="211.325" height="70.0135" filterUnits="userSpaceOnUse" color-interpolation-filters="sRGB">
<feFlood flood-opacity="0" result="BackgroundImageFix"/>
<feColorMatrix in="SourceAlpha" type="matrix" values="0 0 0 0 0 0 0 0 0 0 0 0 0 0 0 0 0 0 127 0" result="hardAlpha"/>
<feOffset dy="4"/>
<feGaussianBlur stdDeviation="2"/>
<feComposite in2="hardAlpha" operator="out"/>
<feColorMatrix type="matrix" values="0 0 0 0 0 0 0 0 0 0 0 0 0 0 0 0 0 0 0.25 0"/>
<feBlend mode="normal" in2="BackgroundImageFix" result="effect1_dropShadow_862_8"/>
<feBlend mode="normal" in="SourceGraphic" in2="effect1_dropShadow_862_8" result="shape"/>
</filter>
</defs>
</svg>
